<?xml version="1.0" encoding="UTF-8" standalone="no"?><svg xmlns="http://www.w3.org/2000/svg" xmlns:xlink="http://www.w3.org/1999/xlink" fill="#dfe0e3" height="357.3" preserveAspectRatio="xMidYMid meet" version="1" viewBox="-2.3 -2.0 368.8 357.3" width="368.8" zoomAndPan="magnify"><g id="change1_1"><path d="M75.2,353.4c-6.9,0-13.6-0.8-20-2.4c-18.9-4.8-34.9-17.6-44.9-36.1c-9.5-17.5-12.6-38.5-8.7-57.7 c3.9-19,12.9-34.2,26.8-45.2l0.2,0.2l-0.2-0.2c4-3.1,8.4-5.9,13.1-8.3c5.3-2.6,10.8-5,16.1-7.2c9.1-3.9,18.5-7.8,26.9-13.4 c15.4-10.4,28.1-27.2,36.7-48.6c8-19.9,12.1-41.5,16-62.3c2-10.4,4-21.2,6.5-31.7c4.4-18.3,17.6-34.3,32.1-39.1 c10.4-3.4,21-0.9,30.5,7.1c7.3,6.2,13,14,18.6,21.5c5,6.7,10.1,13.7,16.3,19.5c11.6,10.8,25.1,19.5,38.2,28 c5.5,3.5,11.2,7.2,16.6,10.9c24.7,17.1,43.9,40.5,55.4,67.6c11.4,27,15.1,57.2,10.6,87.3c-2.5,16.5-9.1,30.5-19.3,40.4 c-10.6,10.4-24.9,15.9-41.2,16.1c-14,0.1-27.5-3.6-40.5-7.2c-15.4-4.3-31.4-8.7-48.1-6.6c-23,2.8-40.5,17.4-57.3,31.5 c-11.4,9.6-23.2,19.4-36.7,25.7C104.4,350,89.4,353.4,75.2,353.4z M185,0.5c-3,0-6,0.5-9,1.5c-14.4,4.7-27.4,20.6-31.8,38.7 c-2.5,10.4-4.5,21.2-6.5,31.6c-3.9,20.8-8,42.4-16,62.4c-8.7,21.5-21.4,38.4-36.9,48.8c-8.4,5.6-17.8,9.6-27,13.5 c-5.3,2.3-10.9,4.6-16.1,7.2c-4.7,2.3-9,5.1-13,8.2c-13.7,10.9-22.7,26-26.6,44.9c-3.9,19.1-0.8,40,8.6,57.3 c9.9,18.3,25.7,31,44.5,35.8c19.5,4.9,42,2.2,63.4-7.7c13.5-6.2,25.2-16.1,36.6-25.6c16.9-14.1,34.4-28.8,57.5-31.6 c16.8-2.1,32.8,2.4,48.3,6.6c13,3.6,26.4,7.3,40.4,7.2c16.1-0.1,30.3-5.6,40.8-15.9c10.1-9.8,16.7-23.7,19.2-40.1 c4.5-30,0.8-60.1-10.6-87c-11.5-27.1-30.6-50.4-55.2-67.4c-5.4-3.7-11.1-7.4-16.6-10.9c-13.1-8.5-26.7-17.2-38.3-28 c-6.3-5.8-11.4-12.8-16.4-19.6C219,22.9,213.3,15.1,206,9C199.4,3.4,192.2,0.5,185,0.5z M78.9,350.1c-6.8,0-13.3-0.8-19.6-2.4 c-18.4-4.6-33.9-17-43.6-34.8c-9.2-16.7-12.4-37.1-9-55.8c3.4-18.2,11.5-33.2,24.1-44.5l0,0c4.3-3.9,8.4-6.7,12.7-9 c5.4-2.8,11.1-5.2,16.7-7.6c8.8-3.7,17.8-7.6,25.8-13c15-10.3,27.1-26.5,35.8-48.2c7.7-19.1,11.6-39.6,15.5-59.5 c2-10.5,4.1-21.4,6.8-32c4.4-17.7,17.4-33.2,31.6-37.8c10.3-3.3,20.7-0.8,30.1,7.2C213,18.9,218.6,26.6,224,34 c4.8,6.6,9.8,13.4,15.8,19.1C250.9,63.6,264,72,276.6,80.2c5.3,3.5,10.9,7,16.1,10.7c23.9,16.6,42.4,39.3,53.5,65.7 c11,26.2,14.6,55.5,10.2,84.8c-2.4,16.1-8.9,29.7-18.7,39.4c-10.3,10.1-24,15.6-39.7,15.9c-13.5,0.2-26.4-3.2-38.9-6.6 c-14.8-4-30.1-8-46.2-5.9c-22,2.9-38.7,17-54.9,30.6c-11.3,9.5-22.9,19.3-36.3,25.5C107.5,346.8,92.8,350.1,78.9,350.1z M31.2,213.1 c-12.6,11.2-20.6,26.1-24,44.2c-3.4,18.6-0.2,38.8,8.9,55.4c9.7,17.7,25,30,43.3,34.6c19.1,4.8,41.1,2.2,62-7.4 c13.4-6.1,25-15.9,36.2-25.4c16.2-13.7,33-27.8,55.2-30.7c16.2-2.2,31.6,1.9,46.4,5.9c12.5,3.3,25.4,6.8,38.8,6.5 c15.6-0.3,29.2-5.7,39.4-15.8c9.7-9.6,16.1-23.1,18.5-39.1c4.4-29.1,0.8-58.3-10.2-84.5c-11.1-26.3-29.5-49-53.3-65.5 c-5.3-3.7-10.8-7.2-16.1-10.7c-12.7-8.2-25.8-16.7-36.9-27.2c-6.1-5.7-11-12.5-15.8-19.2c-5.4-7.4-11-15.1-18.1-21.1 c-9.2-7.9-19.5-10.3-29.6-7.1C161.8,10.6,149,26,144.6,43.5c-2.6,10.5-4.7,21.4-6.8,31.9c-3.8,19.9-7.8,40.5-15.5,59.6 c-8.8,21.8-20.9,38.1-36,48.4c-8,5.5-17.1,9.3-25.8,13c-5.5,2.3-11.2,4.8-16.6,7.6C39.6,206.4,35.6,209.2,31.2,213.1L31.2,213.1z M82.7,346.7c-6.6,0-13.1-0.8-19.3-2.3c-17.8-4.5-32.8-16.4-42.3-33.6c-8.8-16-12.2-35.7-9.3-53.9c2.8-17.4,10-32.1,21.5-43.7l0,0 c3.2-3.2,7.1-6.8,12.3-9.7c5.5-3,11.4-5.5,17-7.9c8.4-3.6,17.2-7.3,24.8-12.6c14.5-10,26.2-26.1,34.9-47.9 c7.3-18.2,11.2-37.9,14.9-56.8c2.1-10.6,4.3-21.6,7-32.2c4.4-17.1,17.3-32.1,31.2-36.5c10.2-3.2,20.5-0.7,29.7,7.2 c7,6,12.4,13.6,17.7,20.9c4.6,6.4,9.4,13.1,15.2,18.6c10.7,10.2,23.3,18.4,35.5,26.3c5.2,3.4,10.5,6.9,15.7,10.4 c23.1,16.1,40.9,38.2,51.6,63.8c10.6,25.4,14,53.9,9.8,82.2c-2.4,15.7-8.6,28.9-18.1,38.4c-9.9,9.9-23.1,15.3-38.3,15.8 c-13,0.3-25.4-2.8-37.4-5.9c-14.2-3.6-28.9-7.4-44.3-5.2c-20.9,3-36.9,16.6-52.5,29.7c-11.1,9.4-22.6,19.2-36,25.2 C110.5,343.6,96.3,346.7,82.7,346.7z M184.3,8.9c-2.8,0-5.7,0.4-8.5,1.3c-13.8,4.3-26.4,19.2-30.9,36.1c-2.7,10.6-4.9,21.6-7,32.2 c-3.8,19-7.6,38.6-15,56.9c-8.8,21.8-20.6,38-35.1,48.1c-7.7,5.3-16.4,9.1-24.9,12.7c-5.7,2.4-11.5,4.9-17,7.9 c-5.1,2.8-9.1,6.4-12.2,9.6c-11.4,11.5-18.6,26.1-21.4,43.4c-2.9,18.1,0.4,37.6,9.2,53.5c9.4,17.1,24.3,28.9,42,33.3 c18.7,4.6,40.2,2.1,60.5-7.1c13.3-6,24.8-15.7,35.9-25.2c15.6-13.2,31.7-26.9,52.7-29.9c15.6-2.2,30.3,1.6,44.5,5.2 c12,3.1,24.4,6.2,37.3,5.9c15-0.4,28.2-5.8,38-15.6c9.4-9.4,15.6-22.6,17.9-38.1c4.2-28.2,0.9-56.6-9.7-81.9 c-10.7-25.5-28.5-47.5-51.4-63.6c-5.1-3.6-10.5-7.1-15.7-10.4c-12.2-7.9-24.9-16.2-35.6-26.4c-5.8-5.6-10.6-12.2-15.3-18.7 c-5.2-7.3-10.7-14.8-17.6-20.8C198.5,11.8,191.4,8.9,184.3,8.9z M86.5,343.4c-6.5,0-12.9-0.7-18.9-2.2c-17.2-4.3-31.8-15.8-41-32.3 c-8.5-15.3-12-34.2-9.6-52c2.3-17,8.5-31,18.9-43l0,0c3-3.5,6.7-7.4,11.9-10.3c5.6-3.1,11.5-5.6,17.3-8.1c8.2-3.5,16.7-7.1,24-12.3 c14.1-9.9,25.2-25.4,34-47.5c7-17.4,10.8-36.1,14.4-54.2c2.2-10.7,4.4-21.8,7.3-32.4c4.5-16.6,17.1-31,30.7-35.2 c10.1-3.1,20.3-0.6,29.4,7.3c6.8,5.9,12.2,13.4,17.3,20.6c4.5,6.3,9.1,12.8,14.7,18.2c10.2,9.9,22.4,17.8,34.2,25.5 c5,3.3,10.2,6.7,15.2,10.2c22.2,15.7,39.4,37.1,49.7,61.9c10.2,24.7,13.5,52.2,9.3,79.6c-2.3,15.2-8.3,28.2-17.4,37.4 c-9.5,9.7-22.3,15.1-36.9,15.6c-12.5,0.5-24.4-2.4-35.9-5.2c-13.6-3.3-27.6-6.7-42.5-4.5c-19.9,3-34.5,15.6-50,28.9 c-11,9.4-22.3,19.1-35.6,25C113.6,340.4,99.7,343.4,86.5,343.4z M183.9,13.1c-2.7,0-5.5,0.4-8.3,1.3c-13.5,4.1-26,18.4-30.4,34.8 c-2.9,10.6-5.1,21.7-7.3,32.4c-3.7,18.1-7.4,36.8-14.4,54.3c-8.9,22.2-20.1,37.8-34.2,47.7c-7.4,5.2-15.9,8.9-24.1,12.4 c-5.7,2.5-11.7,5-17.2,8.1c-5.2,2.9-8.8,6.8-11.8,10.2c-10.3,11.9-16.5,25.8-18.7,42.7c-2.4,17.6,1.1,36.4,9.5,51.6 c9.1,16.4,23.6,27.8,40.7,32.1c18.3,4.5,39.3,2.1,59.1-6.8c13.2-5.9,24.5-15.6,35.5-24.9c14.9-12.7,30.3-25.9,50.3-29 c14.9-2.3,29,1.1,42.7,4.5c11.5,2.8,23.3,5.7,35.7,5.2c14.5-0.5,27.1-5.9,36.5-15.5c9-9.2,15-22,17.3-37.1 c4.1-27.4,0.9-54.8-9.3-79.4c-10.3-24.7-27.4-46-49.6-61.7c-5-3.5-10.2-6.9-15.2-10.2c-11.8-7.7-24-15.6-34.2-25.5 c-5.6-5.4-10.3-11.9-14.7-18.3c-5.1-7.2-10.4-14.6-17.2-20.5C198,16,191,13.1,183.9,13.1z M90.2,340.1c-6.4,0-12.6-0.7-18.6-2.2 C54.7,333.8,41,323,31.9,306.8c-8.2-14.5-11.8-32.8-9.9-50c1.8-16.3,7.1-30.1,16.2-42.2l0,0c3-3.9,6.3-8,11.6-11 c5.6-3.2,11.6-5.8,17.4-8.3c8-3.4,16.2-7,23.3-12.1c13.7-9.8,24.2-24.7,33.1-47.1c6.7-16.6,10.3-34.4,13.9-51.6 c2.2-10.8,4.5-21.9,7.5-32.5c4.5-16,16.9-29.9,30.3-33.9c10-3,20.1-0.5,29,7.3c6.7,5.8,11.9,13.2,16.9,20.3 c4.3,6.1,8.7,12.5,14.1,17.7c9.8,9.6,21.5,17.3,32.8,24.7c4.9,3.2,9.9,6.5,14.7,9.9c21.4,15.2,38,35.9,47.9,59.9 c9.8,23.9,12.9,50.5,8.9,77.1c-2.2,14.8-8.1,27.4-16.8,36.4c-9.2,9.4-21.4,14.8-35.5,15.5c-11.9,0.6-23.3-2-34.3-4.6 c-13-3-26.4-6.1-40.6-3.7c-18.8,3.1-32.8,15.2-47.6,28c-10.8,9.3-22,19-35.2,24.8C116.7,337.1,103.2,340.1,90.2,340.1z M38.4,214.7 l0.2,0.2c-9.1,12-14.4,25.7-16.1,42c-1.8,17.2,1.8,35.3,9.9,49.7c9,16.1,22.6,26.7,39.4,30.9c18,4.3,38.4,2,57.6-6.5 c13.2-5.8,24.3-15.4,35.1-24.7c14.9-12.8,28.9-25,47.9-28.1c14.3-2.4,27.8,0.7,40.8,3.7c11,2.5,22.3,5.1,34.2,4.6 c13.9-0.7,26.1-6,35.1-15.3c8.7-9,14.5-21.5,16.7-36.2c4-26.5,0.9-53-8.9-76.8c-9.9-23.9-26.3-44.6-47.7-59.7 c-4.8-3.4-9.8-6.7-14.7-9.9c-11.3-7.4-23.1-15.1-32.9-24.7c-5.4-5.3-9.9-11.7-14.2-17.8c-5-7.1-10.1-14.4-16.8-20.2 c-8.8-7.7-18.6-10.2-28.5-7.2C162.3,22.4,150,36.2,145.5,52c-3,10.6-5.3,21.7-7.5,32.5c-3.6,17.2-7.2,35-13.9,51.7 c-9,22.5-19.6,37.5-33.3,47.4c-7.2,5.1-15.4,8.7-23.4,12.1c-5.8,2.5-11.8,5.1-17.4,8.3c-5.1,2.9-8.5,7-11.4,10.9L38.4,214.7z M94,336.8c-6.3,0-12.4-0.7-18.3-2.1c-35.2-8.5-51.2-45.7-48.7-78c1.2-16.1,5.5-29.2,13.6-41.5c2.9-4.4,5.9-8.6,11.2-11.7 c5.6-3.3,11.6-5.9,17.5-8.4c7.8-3.4,15.8-6.8,22.7-11.9c17-12.3,26.1-31.5,32.2-46.8c6.3-15.8,9.9-32.7,13.4-49.1 c2.3-10.8,4.6-21.9,7.8-32.6c4.5-15.4,16.8-28.8,29.8-32.6c10-2.9,19.9-0.3,28.6,7.4c6.6,5.8,11.6,13,16.4,20 c4.1,6,8.4,12.1,13.6,17.3c9.4,9.3,20.6,16.7,31.5,23.9c4.7,3.1,9.6,6.3,14.3,9.6c20.6,14.7,36.5,34.8,46,58 c9.4,23.1,12.4,48.8,8.5,74.5c-4.6,30.1-23.3,49.1-50.3,50.8c-11.4,0.7-22.3-1.6-32.7-3.9c-12.4-2.7-25.2-5.4-38.7-3 c-17.7,3.2-31.1,14.8-45.2,27.1c-10.7,9.3-21.7,18.9-34.9,24.6C119.7,334,106.6,336.8,94,336.8z M41.1,215.5 c-8,12.2-12.3,25.3-13.5,41.2c-2.5,32.1,13.3,69,48.3,77.5c17.5,4.2,37.5,2,56.2-6.2c13.1-5.7,24.1-15.3,34.7-24.5 c14.2-12.3,27.6-24,45.5-27.2c13.7-2.4,26.5,0.3,38.9,3c10.4,2.3,21.2,4.6,32.6,3.9c26.7-1.6,45.3-20.5,49.8-50.4 c3.8-25.6,0.9-51.3-8.5-74.3c-9.5-23.1-25.3-43.1-45.8-57.8c-4.6-3.3-9.5-6.5-14.2-9.6c-10.9-7.2-22.2-14.6-31.6-23.9 c-5.2-5.2-9.5-11.4-13.6-17.3c-4.8-7-9.8-14.2-16.3-19.9c-8.6-7.6-18.4-10.1-28.2-7.3c-12.9,3.7-25,17-29.5,32.3 c-3.1,10.6-5.5,21.8-7.8,32.6c-3.5,16.4-7,33.3-13.4,49.2c-6.1,15.4-15.4,34.6-32.4,47c-7,5.1-15,8.6-22.8,11.9 c-5.8,2.5-11.9,5.2-17.4,8.4C46.9,207,43.9,211.2,41.1,215.5L41.1,215.5z M97.8,333.4c-6.1,0-12.2-0.7-18-2.1 c-15.7-3.7-28.6-13.6-37.1-28.6c-7.5-13.2-11.3-29.6-10.6-46.2c0.7-15.7,4.2-28.6,11-40.7l0,0c2.6-4.7,5.4-9.1,10.8-12.4 c5.5-3.4,11.6-6,17.5-8.6c7.6-3.3,15.4-6.7,22.1-11.7c16.1-11.8,24.9-30.1,31.4-46.4c6-15,9.5-31.1,12.9-46.6 c2.3-10.8,4.8-22,8-32.6c4.6-15.1,16.4-27.7,29.3-31.3c9.9-2.8,19.6-0.2,28.3,7.5c6.4,5.7,11.3,12.8,16,19.7c4,5.8,8.1,11.8,13,16.8 c8.9,9,19.7,16.1,30.2,23c4.6,3,9.3,6.1,13.8,9.4c19.8,14.3,35,33.7,44.1,56.1c9,22.3,11.8,47.2,8.1,72 c-4.4,29.2-22.4,47.7-48.2,49.7c-10.9,0.8-21.2-1.2-31.2-3.2c-11.8-2.4-23.9-4.8-36.9-2.3c-16.7,3.2-29.4,14.4-42.8,26.2 c-10.5,9.2-21.4,18.8-34.5,24.4C122.8,330.7,110,333.4,97.8,333.4z M182.7,25.7c-2.5,0-5,0.4-7.5,1.1c-12.8,3.6-24.4,16-29,31 c-3.2,10.6-5.7,21.8-8,32.6c-3.4,15.5-6.8,31.6-12.9,46.7c-6.5,16.4-15.4,34.7-31.5,46.6c-6.8,5-14.6,8.4-22.2,11.8 c-5.8,2.6-11.9,5.2-17.4,8.5c-5.3,3.2-8,7.6-10.6,12.2c-6.8,12-10.2,24.9-10.9,40.5c-0.7,16.5,3,32.8,10.5,45.9 c8.5,14.9,21.2,24.7,36.8,28.4c17.2,4.1,36.6,2,54.8-5.9c13-5.6,23.9-15.1,34.3-24.3c13.5-11.9,26.2-23.1,43.1-26.3 c13-2.5,25.2-0.1,37.1,2.3c9.9,2,20.2,4,31,3.2c25.5-1.9,43.4-20.3,47.7-49.2c3.7-24.7,0.9-49.5-8-71.7c-9-22.3-24.2-41.7-43.9-55.9 c-4.5-3.2-9.2-6.3-13.8-9.3c-10.5-6.9-21.3-14-30.3-23.1c-5-5-9.1-11.1-13.1-16.9c-4.7-6.9-9.6-14-15.9-19.6 C196.7,28.5,189.8,25.7,182.7,25.7z M101.5,330.1c-6,0-11.9-0.7-17.6-2c-15.1-3.6-27.5-13-35.8-27.4c-7.2-12.4-11-28.1-10.9-44.3 c0.1-15.7,2.7-28,8.3-40l0,0c1.8-3.7,4.4-9.3,10.4-13c5.5-3.4,11.6-6.1,17.4-8.7c7.4-3.3,15.1-6.6,21.6-11.5 c15.2-11.4,23.6-28.9,30.5-46.1c5.7-14.3,9.1-29.5,12.3-44.2c2.4-10.8,4.9-22,8.2-32.6c4.6-14.5,16.2-26.6,28.9-30.1 c9.8-2.7,19.4,0,27.9,7.6c6.3,5.6,11,12.6,15.6,19.4c3.8,5.7,7.7,11.5,12.5,16.4c8.5,8.7,18.9,15.6,28.9,22.2 c4.4,2.9,9,5.9,13.3,9.1c18.9,13.8,33.5,32.5,42.2,54.2c8.6,21.5,11.3,45.5,7.7,69.4c-4.3,28.2-21.5,46.3-46.2,48.5 c-10.4,0.9-20.2-0.9-29.6-2.6c-11.2-2-22.7-4.2-35-1.6c-15.7,3.3-27.7,14-40.5,25.3c-10.3,9.2-21,18.7-34,24.2 C125.8,327.5,113.4,330.1,101.5,330.1z M45.7,216.6l0.2,0.1c-5.6,11.9-8.2,24.1-8.3,39.8c-0.1,16,3.8,31.7,10.9,44 c8.2,14.3,20.5,23.7,35.5,27.2c16.7,3.9,35.7,1.9,53.3-5.6c12.9-5.5,23.6-15,33.9-24.1c12.8-11.4,24.9-22.1,40.7-25.4 c12.4-2.6,24-0.5,35.2,1.6c9.4,1.7,19.1,3.5,29.5,2.6c24.4-2.2,41.5-20.2,45.7-48.1c3.6-23.8,1-47.8-7.6-69.2 c-8.6-21.6-23.2-40.2-42-54c-4.3-3.1-8.9-6.1-13.3-9.1c-10-6.7-20.4-13.5-28.9-22.3c-4.8-4.9-8.7-10.8-12.5-16.4 c-4.6-6.8-9.3-13.8-15.5-19.3c-8.3-7.5-17.8-10.1-27.4-7.4c-12.5,3.4-23.9,15.3-28.5,29.7c-3.4,10.6-5.8,21.7-8.2,32.5 c-3.3,14.7-6.6,30-12.4,44.3c-6.9,17.2-15.3,34.8-30.6,46.3c-6.6,5-14.3,8.3-21.7,11.6c-5.8,2.6-11.9,5.2-17.3,8.6 c-5.9,3.7-8.5,9.2-10.2,12.8L45.7,216.6z M105.3,326.8c-5.9,0-11.7-0.6-17.2-1.9c-32.3-7.5-44.8-40.3-45.8-68.5 c-0.4-11.2,0-24.7,5.7-39.2l0.2,0.1l-0.2-0.1c1.9-4.9,4.3-10.1,10-13.7c5.4-3.5,11.5-6.1,17.3-8.7c7.3-3.2,14.8-6.5,21.1-11.4 c15.2-11.5,22.9-28.9,29.6-45.7c5.4-13.5,8.7-27.9,11.8-41.8c2.4-10.8,5-22,8.5-32.5c4.7-14,16.1-25.6,28.4-28.8 c9.7-2.5,19.2,0.1,27.6,7.6c6.1,5.5,10.7,12.4,15.1,19.1c3.6,5.5,7.4,11.2,11.9,15.9c8.1,8.4,18,15,27.5,21.4 c4.2,2.8,8.6,5.8,12.8,8.8c18.1,13.3,32.1,31.4,40.3,52.2c8.2,20.7,10.7,43.8,7.2,66.9c-4.1,27.2-20.6,44.9-44.1,47.4 c-9.9,1.1-19.1-0.5-28-1.9c-11-1.8-21.5-3.5-33.1-0.9c-14.6,3.3-26,13.6-38.1,24.4c-10.2,9.1-20.7,18.6-33.6,24.1 C128.8,324.3,116.9,326.8,105.3,326.8z M181.8,34c-2.3,0-4.7,0.3-7,0.9c-12.2,3.2-23.4,14.6-28,28.5c-3.5,10.5-6,21.6-8.5,32.4 c-3.2,13.9-6.4,28.3-11.8,41.9c-6.7,16.9-14.5,34.3-29.7,45.9c-6.4,4.9-14,8.2-21.2,11.5c-5.8,2.6-11.8,5.2-17.3,8.7 c-5.6,3.6-7.9,8.6-9.8,13.5l0,0c-5.7,14.5-6,27.8-5.6,39c0.9,28.1,13.4,60.7,45.4,68.1c16.4,3.8,34.8,1.9,51.9-5.3 c12.9-5.4,23.4-14.8,33.5-24c12.1-10.9,23.5-21.2,38.3-24.5c11.8-2.7,22.7-0.9,33.3,0.9c8.9,1.5,18.1,3,27.9,1.9 c23.2-2.5,39.6-20,43.7-47c3.5-23,1-46-7.2-66.6c-8.2-20.8-22.1-38.8-40.2-52c-4.1-3-8.5-6-12.8-8.8c-9.6-6.4-19.5-13-27.6-21.5 c-4.6-4.7-8.3-10.5-12-16c-4.4-6.7-9-13.6-15.1-19C195.8,36.9,188.9,34,181.8,34z M109.1,323.5c-5.8,0-11.5-0.6-16.9-1.9 c-14.4-3.3-27-12.2-35.3-25.1c-7.8-12-11.2-26.7-9.5-40.3c-2-7-3.5-17.7,3.1-38.5l0.2,0.1l-0.2-0.1c1.5-4.9,3.7-10.5,9.6-14.4 c5.4-3.5,11.4-6.2,17.2-8.8c7.1-3.2,14.5-6.4,20.7-11.3c14.3-11.1,21.7-27.8,28.7-45.4c5.1-12.8,8.3-26.4,11.3-39.5 c2.5-10.8,5.1-21.9,8.7-32.3c4.7-13.4,15.9-24.5,27.9-27.5c9.6-2.4,19,0.2,27.2,7.7c6,5.4,10.4,12.3,14.7,18.9 c3.5,5.3,7.1,10.9,11.4,15.4c7.7,8.1,17.1,14.5,26.2,20.6c4.1,2.7,8.3,5.6,12.3,8.5c17.3,12.9,30.6,30.3,38.4,50.3 c7.8,19.9,10.2,42.1,6.8,64.3c-4,26.2-19.7,43.5-42.1,46.3c-9.4,1.2-18-0.1-26.5-1.3c-10.4-1.5-20.2-2.9-31.3-0.1 c-13.6,3.4-24.3,13.1-35.7,23.5c-10,9.1-20.3,18.5-33.3,23.9C131.9,321.1,120.3,323.5,109.1,323.5z M181.4,38.2 c-2.2,0-4.5,0.3-6.7,0.9c-11.9,3-22.9,13.9-27.5,27.2c-3.6,10.4-6.2,21.5-8.7,32.3c-3.1,13.1-6.2,26.7-11.3,39.6 c-7,17.6-14.4,34.4-28.9,45.6c-6.3,4.9-13.7,8.2-20.8,11.3c-5.8,2.6-11.8,5.2-17.1,8.7c-5.8,3.8-7.9,9.3-9.4,14.1l0,0 c-6.5,20.7-5,31.3-3,38.2l0,0.1l0,0.1c-1.7,13.4,1.7,28,9.4,40c8.2,12.8,20.7,21.6,35,24.9c16,3.6,33.9,1.9,50.4-5 c12.8-5.3,23.1-14.7,33.1-23.8c11.4-10.4,22.1-20.2,35.9-23.6c11.1-2.7,21.5-1.3,31.5,0.1c8.4,1.2,17,2.4,26.3,1.3 c22.1-2.8,37.7-19.9,41.6-45.8c3.3-22.1,1-44.2-6.8-64.1c-7.8-20-21.1-37.3-38.3-50.1c-4-2.9-8.2-5.8-12.3-8.5 c-9.2-6.1-18.6-12.5-26.3-20.7c-4.3-4.6-8-10.2-11.4-15.5c-4.3-6.6-8.7-13.4-14.6-18.8C195.3,41.1,188.5,38.2,181.4,38.2z M112.8,320.1c-5.7,0-11.2-0.6-16.6-1.8c-13.9-3.1-26.1-11.6-34.2-23.9c-7.6-11.4-11.1-25.4-9.6-38.3c-3.7-9.8-3.6-21.1,0.4-37.7 c1.3-5.5,3.4-11.1,9.3-15.1c5.3-3.6,11.3-6.2,17.1-8.8c7-3.1,14.2-6.4,20.3-11.2c14.6-11.5,21.6-29.3,27.8-45 c4.8-12.1,7.9-24.8,10.8-37.2c2.6-10.7,5.2-21.8,8.9-32.2c4.7-12.9,15.7-23.4,27.4-26.3c6.7-1.6,16.7-1.6,26.9,7.8 c5.8,5.4,10.1,12.1,14.3,18.6c3.5,5.4,6.7,10.5,10.8,15c7.2,7.8,16.2,13.9,24.9,19.8c3.9,2.7,8,5.4,11.8,8.2 c33.5,25.2,49.6,66.4,43,110.2c-1.9,12.2-6.4,22.8-13.2,30.5c-6.9,8-16.2,13.1-26.9,14.6c-8.8,1.3-17,0.3-24.9-0.6 c-9.8-1.1-19-2.2-29.4,0.6c-12.6,3.4-22.6,12.7-33.3,22.5c-9.8,9.1-20,18.5-32.9,23.8C135,317.9,123.8,320.1,112.8,320.1z M53.1,218.4l0.2,0.1c-4,16.5-4.1,27.8-0.4,37.5l0,0.1l0,0.1c-1.5,12.8,2,26.7,9.5,38.1c8.1,12.2,20.1,20.6,33.9,23.7 c15.6,3.5,33,1.8,49-4.7c12.8-5.2,22.9-14.6,32.7-23.7c10.7-9.9,20.8-19.2,33.5-22.6c10.5-2.8,20.2-1.7,29.6-0.6 c7.9,0.9,16,1.9,24.7,0.6c10.5-1.5,19.7-6.5,26.6-14.4c6.7-7.7,11.2-18.2,13-30.3c6.6-43.6-9.4-84.6-42.8-109.7 c-3.8-2.8-7.9-5.6-11.8-8.2c-8.7-5.9-17.7-12-25-19.9c-4.1-4.5-7.6-9.8-10.9-15c-4.1-6.5-8.4-13.2-14.2-18.5 c-7.9-7.3-17-10-26.4-7.7c-11.6,2.8-22.4,13.2-27.1,25.9c-3.7,10.3-6.4,21.4-8.9,32.1c-2.9,12.4-6,25.2-10.8,37.3 c-6.2,15.8-13.3,33.6-28,45.2c-6.1,4.8-13.4,8.1-20.4,11.2c-5.8,2.6-11.7,5.2-17,8.8c-6,4-7.8,9.7-9,14.8L53.1,218.4z M116.6,316.8 c-5.5,0-11-0.6-16.3-1.7c-13.4-2.9-25.2-11-33.2-22.7c-7.4-10.8-10.9-24.1-9.7-36.4c-4.4-9.2-5.1-20.3-2.2-37l0.2,0l-0.2,0 c1-5.7,2.7-11.6,8.9-15.8c5.2-3.6,11.2-6.3,16.9-8.8c6.9-3.1,13.9-6.3,19.9-11.1c13.6-10.9,20-27.3,26.3-43.1l0.6-1.5 c4.5-11.3,7.4-23.3,10.2-34.9c2.6-10.7,5.3-21.8,9.2-32c4.8-12.5,15.3-22.3,26.9-25c6.6-1.5,16.6-1.4,26.5,7.9 c5.7,5.3,9.8,11.9,13.8,18.3c3.3,5.2,6.4,10.2,10.3,14.5c6.8,7.6,15.4,13.4,23.6,19c3.8,2.6,7.6,5.2,11.3,8 c31.8,24.3,47,63.8,40.6,105.7c-1.8,11.8-6.2,22-12.5,29.6c-6.7,7.9-15.2,12.7-25.5,14.5c-8.3,1.4-15.9,0.7-23.3,0.1 c-9.1-0.8-17.8-1.6-27.6,1.3c-11.6,3.4-21,12.2-30.9,21.5c-9.7,9.1-19.6,18.5-32.5,23.6C138,314.7,127.2,316.8,116.6,316.8z M180.5,46.5c-2.3,0-4.3,0.3-6.2,0.7c-11.4,2.6-21.9,12.3-26.6,24.7c-3.9,10.2-6.6,21.3-9.2,32c-2.8,11.6-5.8,23.6-10.3,34.9 l-0.6,1.5c-6.3,15.9-12.8,32.3-26.5,43.3c-6,4.8-13.1,8-20,11.1c-5.7,2.6-11.6,5.2-16.8,8.8c-6,4.1-7.7,9.8-8.7,15.4 c-2.9,16.6-2.2,27.6,2.2,36.7l0,0.1l0,0.1c-1.2,12.2,2.3,25.4,9.6,36.1c7.9,11.6,19.5,19.5,32.9,22.5c15.2,3.3,32.1,1.8,47.6-4.4 c12.8-5.1,22.7-14.5,32.3-23.5c10-9.4,19.4-18.2,31.1-21.7c9.9-2.9,18.6-2.1,27.8-1.3c7.3,0.7,14.9,1.3,23.2,0 c20.1-3.4,33.8-19.3,37.6-43.6c6.3-41.7-8.8-81.1-40.5-105.2c-3.6-2.8-7.5-5.4-11.3-7.9c-8.3-5.6-16.9-11.5-23.7-19.1 c-3.9-4.3-7.2-9.5-10.3-14.6c-4-6.4-8.1-12.9-13.8-18.2C193.3,48.4,186.3,46.5,180.5,46.5z M120.5,313.5c-5.4,0-10.8-0.6-16-1.7 c-12.9-2.8-24.3-10.4-32.1-21.5c-7.2-10.2-10.8-22.8-9.8-34.5c-5.1-8.6-6.6-19.8-4.8-36.2c0.6-5.6,2.1-12,8.5-16.4 c5.2-3.6,11-6.3,16.7-8.9c6.7-3.1,13.7-6.2,19.5-11c12.7-10.4,18.8-25.8,24.6-40.8c0.5-1.2,0.9-2.3,1.4-3.5 c4.2-10.6,7-21.8,9.7-32.7c2.7-10.6,5.4-21.7,9.5-31.8c4.8-12,15.1-21.3,26.4-23.8c6.6-1.4,16.4-1.2,26.2,8 c5.5,5.2,9.5,11.7,13.4,18c3.1,5.1,6.1,9.9,9.8,14c6.4,7.2,14.4,12.7,22.2,18.1c3.6,2.5,7.4,5.1,10.9,7.8 c30.1,23.2,44.4,61,38.3,101.2c-3.6,23.5-16.8,39.2-36,42.9c-7.8,1.5-14.9,1.1-21.7,0.7c-8.5-0.5-16.5-0.9-25.7,2 c-10.6,3.4-19.3,11.7-28.5,20.6c-9.5,9.1-19.3,18.5-32.1,23.5C141.1,311.5,130.7,313.5,120.5,313.5z M180,50.7 c-2.2,0-4.1,0.3-5.9,0.6C163,53.7,152.8,63,148.1,74.8c-4,10.1-6.8,21.1-9.4,31.7c-2.7,10.9-5.5,22.1-9.7,32.8 c-0.5,1.2-0.9,2.3-1.4,3.5c-5.9,15-12,30.5-24.8,41c-5.8,4.8-12.8,8-19.6,11.1c-5.7,2.6-11.5,5.2-16.6,8.8 c-6.2,4.4-7.7,10.6-8.3,16.1c-1.8,16.4-0.3,27.5,4.8,36l0,0.1l0,0.1c-1.9,22.5,13.1,49.4,41.5,55.5c14.9,3.2,31.3,1.7,46.1-4.1 c12.8-5,22.5-14.4,31.9-23.4c9.2-8.9,18-17.2,28.7-20.7c9.3-3,17.4-2.5,25.9-2c6.8,0.4,13.8,0.8,21.6-0.7 c19-3.7,31.9-19.1,35.6-42.5c6.1-40-8.2-77.6-38.1-100.7c-3.5-2.7-7.3-5.3-10.9-7.8c-7.8-5.4-15.9-10.9-22.3-18.2 c-3.7-4.2-6.7-9-9.8-14.1c-3.9-6.3-7.8-12.7-13.3-17.9C192.9,52.6,185.8,50.7,180,50.7z M124.3,310.1c-5.3,0-10.6-0.5-15.7-1.6 c-27.4-5.8-42.3-31.3-40.9-52.8c-5.9-8.1-8.2-19-7.5-35.5l0.3,0l-0.3,0c0.2-5.5,1.4-12.3,8.1-17.1c5.1-3.6,10.9-6.3,16.5-8.9 c6.6-3,13.5-6.2,19.1-10.9c12-10,17.4-24,23.1-38.7c0.7-1.7,1.3-3.5,2-5.2c3.9-9.9,6.6-20.4,9.2-30.5c2.7-10.6,5.5-21.5,9.7-31.5 c4.8-11.4,15-20.3,25.9-22.6c6.5-1.4,16.3-1,25.9,8.2c5.4,5.1,9.2,11.6,13,17.7c2.9,4.9,5.7,9.5,9.2,13.6c6,6.9,13.6,12.2,20.9,17.3 c3.5,2.4,7,4.9,10.4,7.5c28.4,22.2,41.9,58.4,36,96.7c-3.5,22.5-15.9,37.7-33.9,41.7c-7.3,1.6-13.8,1.5-20.1,1.4 c-7.9-0.2-15.3-0.3-23.9,2.7c-9.6,3.4-17.6,11.2-26.1,19.5c-9.3,9.1-18.9,18.5-31.7,23.5C144.2,308.3,134.2,310.1,124.3,310.1z M179.5,54.8c-2,0-3.9,0.2-5.6,0.6c-10.8,2.2-20.9,11-25.6,22.3c-4.2,9.9-7,20.8-9.7,31.4c-2.6,10.1-5.3,20.6-9.2,30.6 c-0.7,1.7-1.3,3.5-2,5.2c-5.5,14.2-11.2,28.9-23.3,38.9c-5.7,4.8-12.6,7.9-19.2,11c-5.6,2.6-11.4,5.2-16.4,8.8 c-6.5,4.7-7.6,11.4-7.9,16.7c-0.7,16.4,1.5,27.3,7.4,35.3l0.1,0.1l0,0.1c-1.4,21.2,13.4,46.6,40.5,52.3c14.5,3.1,30.4,1.7,44.7-3.8 c12.7-4.9,22.3-14.3,31.6-23.3c8.5-8.3,16.6-16.2,26.3-19.7c8.7-3.1,16.2-2.9,24.1-2.8c6.3,0.1,12.7,0.3,20-1.3 c17.8-4,30.1-19,33.5-41.3c5.8-38.2-7.6-74.1-35.8-96.2c-3.3-2.6-6.9-5.1-10.4-7.5c-7.4-5.1-15-10.4-21-17.4 c-3.5-4.1-6.3-8.7-9.3-13.6c-3.7-6.2-7.5-12.5-12.9-17.6C192.4,56.7,185.3,54.8,179.5,54.8z M128.1,306.8c-5.2,0-10.4-0.5-15.4-1.5 c-26.1-5.4-40.8-29.4-40-49.6c-6.7-7.5-9.9-18.6-10.1-34.8l0,0c-0.1-5.6,0.7-12.7,7.7-17.8c5-3.7,10.7-6.3,16.3-8.9 c6.5-3,13.2-6.1,18.8-10.8c11.3-9.6,16.4-22.9,21.7-36.9c0.8-2.2,1.7-4.4,2.6-6.6c3.6-9.3,6.2-19,8.7-28.4c2.9-11,5.6-21.3,9.9-31.1 C153,69.4,163,61,173.7,58.9c6.5-1.3,16.1-0.8,25.5,8.3c5.3,5.1,9,11.4,12.5,17.5c2.8,4.7,5.4,9.2,8.7,13.1 c5.6,6.6,12.7,11.6,19.6,16.5c3.3,2.3,6.7,4.7,9.9,7.2c26.7,21.2,39.3,55.7,33.7,92.2c-3.4,21.5-15,36.3-31.9,40.6 c-6.8,1.7-12.7,1.9-18.5,2c-7.2,0.2-14.1,0.3-22.1,3.5c-8.6,3.4-15.9,10.7-23.7,18.5c-9.1,9.1-18.5,18.6-31.3,23.4 C147.3,305.1,137.6,306.8,128.1,306.8z M179,58.9c-1.9,0-3.7,0.2-5.2,0.5c-10.5,2.1-20.3,10.3-25.1,21c-4.3,9.8-7,20.1-9.9,31 c-2.5,9.4-5.1,19.2-8.7,28.5c-0.9,2.2-1.7,4.5-2.6,6.6c-5.4,14.1-10.4,27.4-21.8,37.1c-5.6,4.8-12.3,7.9-18.9,10.9 c-5.5,2.6-11.3,5.2-16.2,8.8c-6.8,4.9-7.6,11.9-7.5,17.4l0,0c0.2,16.1,3.4,27.1,10,34.5l0.1,0.1l0,0.1c-0.9,20,13.7,43.9,39.6,49.2 c14.2,2.9,29.5,1.7,43.2-3.5c12.8-4.8,22.1-14.2,31.2-23.3c7.8-7.8,15.1-15.2,23.8-18.6c8.1-3.2,15-3.3,22.3-3.5 c5.7-0.1,11.6-0.3,18.3-2c16.7-4.3,28.2-18.9,31.5-40.2c5.5-36.3-7-70.6-33.5-91.8c-3.2-2.5-6.6-4.9-9.8-7.2 c-6.9-4.9-14.1-9.9-19.7-16.6c-3.3-3.9-5.9-8.4-8.7-13.2c-3.6-6.1-7.3-12.3-12.5-17.4C191.9,60.8,184.8,58.9,179,58.9z M131.9,303.5 c-5.1,0-10.2-0.5-15.2-1.5c-24.9-5-39.3-27.5-39-46.4c-7.5-6.9-11.6-18-12.7-34l0,0c-0.4-5.3,0-13,7.3-18.5 c4.9-3.7,10.6-6.3,16.1-8.9c6.4-3,13-6.1,18.4-10.8c10.7-9.3,15.4-21.9,20.4-35.3c1-2.6,2-5.3,3-7.9c3.4-8.6,5.8-17.6,8.2-26.4 c2.9-10.9,5.7-21.1,10.2-30.7c4.8-10.3,14.6-18.2,24.9-20.1c6.4-1.2,16-0.6,25.2,8.4c5.1,5,8.7,11.2,12.1,17.2 c2.6,4.5,5.1,8.8,8.1,12.6c5.1,6.3,11.9,11.1,18.4,15.7c3.1,2.2,6.3,4.5,9.3,6.9c25,20.3,36.8,53.1,31.4,87.7 c-3.2,20.5-14,34.9-29.8,39.5c-6.2,1.8-11.6,2.2-16.8,2.6c-6.6,0.5-12.9,1-20.3,4.2c-7.6,3.3-14.3,10.2-21.3,17.4 c-8.9,9.2-18.1,18.7-31,23.4C150.4,301.9,141.1,303.5,131.9,303.5z M178.5,63c-1.8,0-3.4,0.2-4.9,0.4c-10.2,1.9-19.8,9.6-24.5,19.8 c-4.4,9.6-7.2,19.8-10.1,30.7c-2.4,8.7-4.8,17.8-8.2,26.4c-1,2.6-2,5.3-3,7.9c-5,13.4-9.7,26.1-20.5,35.5 c-5.5,4.8-12.1,7.9-18.5,10.9c-5.5,2.6-11.1,5.2-16,8.8c-7.1,5.3-7.5,12.8-7.1,18l0,0c1.1,15.9,5.2,26.9,12.7,33.8l0.1,0.1l0,0.1 c-0.4,18.8,13.9,41.1,38.6,46.1c13.8,2.8,28.7,1.6,41.8-3.2c12.8-4.7,21.9-14.2,30.8-23.3c7-7.3,13.7-14.2,21.4-17.5 c7.5-3.3,13.8-3.8,20.5-4.3c5.2-0.4,10.5-0.8,16.7-2.6c15.6-4.6,26.3-18.8,29.5-39.1c5.3-34.5-6.3-67.1-31.2-87.3 c-3-2.4-6.2-4.7-9.3-6.9c-6.5-4.6-13.3-9.4-18.5-15.8c-3.1-3.8-5.6-8.1-8.2-12.7c-3.4-6-7-12.1-12-17.1 C191.4,64.9,184.3,63,178.5,63z M136,300.2c-5,0-10.1-0.5-15.1-1.5c-14-2.7-22.9-10.5-27.8-16.6c-6.4-7.8-10.1-17.6-10.2-26.7 c-8.2-6.3-13.4-17.5-15.4-33.3c-1.1-8.6,1.2-14.8,6.9-19.2c4.8-3.7,10.4-6.3,15.8-8.9c6.3-3,12.8-6,18.1-10.7 c10.2-9,14.5-21,19.1-33.8c1.1-3,2.2-6,3.4-9c3.1-7.9,5.4-16.3,7.7-24.3c3-10.8,5.8-20.9,10.4-30.3c4.8-10,14.2-17.2,24.4-18.9 c6.4-1.1,15.9-0.4,24.9,8.6c5,4.9,8.4,11,11.7,17c2.4,4.4,4.7,8.5,7.6,12.1c4.7,6,11,10.5,17.1,14.9c2.9,2.1,6,4.3,8.8,6.6 c23.3,19.3,34.2,50.4,29.1,83.3c-3,19.4-13.2,33.4-27.8,38.4c-5.7,1.9-10.5,2.6-15.1,3.2c-6,0.8-11.7,1.6-18.6,5 c-6.7,3.3-12.6,9.6-18.9,16.3c-8.3,8.8-17.6,18.8-30.6,23.5C153.4,298.7,144.7,300.2,136,300.2z M68,222.1c0.9,7.5,2.6,14,4.9,19.3 c2.6,5.9,6.1,10.5,10.4,13.7l0.1,0.1l0,0.1c0,9.1,3.7,18.7,10.1,26.5c4.9,6,13.7,13.7,27.5,16.4c13.7,2.7,27.7,1.6,40.4-2.9 c12.8-4.6,22.2-14.6,30.4-23.3c6.3-6.7,12.3-13.1,19-16.4c7-3.4,12.7-4.2,18.7-5.1c4.6-0.6,9.4-1.3,15-3.2 c14.4-4.9,24.4-18.7,27.4-38c5.1-32.6-5.7-63.6-28.9-82.8c-2.8-2.3-5.8-4.5-8.8-6.6c-6.1-4.4-12.4-8.9-17.2-15 c-2.9-3.6-5.2-7.8-7.6-12.2c-3.3-5.9-6.7-12-11.6-16.8c-8.9-8.9-18.2-9.5-24.5-8.5c-10.1,1.7-19.3,8.8-24,18.7 c-4.6,9.4-7.4,19.5-10.4,30.2c-2.2,8.1-4.6,16.4-7.7,24.4c-1.2,3-2.3,6.1-3.3,9c-4.6,12.8-9,25-19.3,34c-5.3,4.7-11.9,7.8-18.2,10.8 c-5.4,2.5-11,5.2-15.8,8.8C69.1,207.6,66.9,213.7,68,222.1L68,222.1z M139.8,296.9c-4.9,0-9.9-0.5-14.9-1.4 c-23.2-4.4-36.4-23.9-37.1-40.1c-9.2-5.8-15.2-16.7-18-32.5c-1.5-8.8,0.6-15.2,6.5-19.8c4.7-3.7,10.3-6.3,15.6-8.8 c6.2-2.9,12.6-6,17.8-10.7c9.6-8.7,13.7-20.2,17.9-32.5c1.1-3.3,2.3-6.7,3.6-10c2.9-7.3,5-14.9,7.2-22.3c3-10.6,5.9-20.7,10.6-29.9 c4.8-9.4,14-16.2,23.8-17.7c9-1.4,17.7,1.7,24.6,8.8c4.8,4.9,8.1,10.9,11.2,16.7c2.3,4.2,4.4,8.2,7.1,11.6 c4.3,5.7,10.2,10,15.8,14.1c2.8,2,5.6,4.1,8.3,6.3c21.6,18.3,31.7,47.8,26.8,78.8c-2.9,18.4-12.3,32-25.7,37.2 c-5.1,2-9.3,2.9-13.4,3.8c-5.4,1.2-10.5,2.3-16.9,5.8c-5.7,3.2-11,8.9-16.5,15.1c-8,8.9-17.2,19-30.2,23.6 C156.5,295.5,148.3,296.9,139.8,296.9z M70.4,222.7c2.8,15.7,8.8,26.6,17.9,32.3l0.1,0.1l0,0.1c0.6,16.1,13.6,35.5,36.7,39.8 c13.4,2.5,26.8,1.6,38.9-2.6c12.9-4.5,22-14.6,30-23.4c5.6-6.2,10.8-12,16.6-15.2c6.5-3.6,11.6-4.7,17.1-5.9c4-0.9,8.2-1.8,13.3-3.8 c13.3-5.2,22.6-18.6,25.4-36.8c4.8-30.8-5.1-60.1-26.6-78.3c-2.6-2.2-5.5-4.3-8.2-6.3c-5.7-4.2-11.5-8.4-15.9-14.2 c-2.7-3.5-4.8-7.5-7.1-11.7c-3.1-5.8-6.4-11.7-11.1-16.6c-6.8-6.9-15.4-10-24.2-8.6c-9.7,1.5-18.7,8.2-23.5,17.5 c-4.7,9.1-7.6,19.2-10.6,29.8c-2.1,7.4-4.3,15-7.2,22.4c-1.3,3.3-2.5,6.7-3.6,10c-4.3,12.3-8.3,23.9-18.1,32.7 c-5.2,4.7-11.7,7.8-17.9,10.8c-5.3,2.5-10.8,5.1-15.5,8.8C71,207.8,68.9,214.2,70.4,222.7L70.4,222.7z M143.7,293.5 c-4.8,0-9.7-0.4-14.7-1.3c-10.1-1.8-19-6.7-25.7-14.2c-6-6.6-9.8-14.9-10.4-22.8c-10-5.1-17.1-16.1-20.6-31.8 c-2-8.8,0.1-15.7,6.1-20.5c4.6-3.7,10.1-6.3,15.4-8.8c6.1-2.9,12.4-6,17.4-10.6c9.2-8.4,12.9-19.5,16.8-31.3 c1.2-3.6,2.4-7.3,3.9-10.9c2.6-6.7,4.6-13.6,6.6-20.3c3.1-10.5,6-20.4,10.9-29.4c4.8-8.9,13.8-15.2,23.3-16.6 c8.9-1.2,17.5,1.9,24.3,8.9c4.7,4.8,7.8,10.7,10.8,16.4c2.1,4,4.1,7.8,6.5,11.1c4,5.4,9.3,9.4,14.6,13.3c2.6,1.9,5.3,3.9,7.7,6.1 c19.9,17.3,29.1,45.1,24.5,74.3c-2.7,17.4-11.4,30.5-23.7,36.1c-4.4,2-8,3.1-11.4,4.2c-4.8,1.5-9.4,3-15.4,6.8 c-4.8,3-9.3,8.2-14.1,13.8c-7.8,9.1-16.6,19.3-29.8,23.8C159.6,292.3,151.8,293.5,143.7,293.5z M176.6,75.3c-1.2,0-2.4,0.1-3.7,0.3 c-9.4,1.3-18.2,7.5-22.9,16.3c-4.8,8.9-7.8,18.8-10.9,29.3c-2,6.7-4,13.7-6.6,20.4c-1.4,3.6-2.6,7.3-3.8,10.9 c-4,11.8-7.7,23-17,31.5c-5.1,4.7-11.4,7.8-17.6,10.7c-5.2,2.5-10.7,5.1-15.3,8.8c-5.9,4.7-7.9,11.4-6,20 c3.5,15.6,10.6,26.5,20.5,31.5l0.1,0.1l0,0.1c1.1,14.8,13.9,32.7,35.7,36.7c13.1,2.4,26,1.6,37.5-2.3c13-4.4,21.8-14.6,29.6-23.6 c4.8-5.6,9.3-10.8,14.2-13.9c6-3.8,10.6-5.2,15.5-6.8c3.4-1.1,7-2.2,11.4-4.2c12.2-5.5,20.7-18.5,23.4-35.7 c4.6-29-4.5-56.6-24.3-73.8c-2.4-2.1-5.1-4.1-7.7-6c-5.2-3.9-10.7-8-14.7-13.4c-2.5-3.4-4.5-7.2-6.6-11.2c-3-5.7-6.1-11.6-10.7-16.3 C191.1,78.4,184,75.3,176.6,75.3z M147.7,290.2c-4.7,0-9.6-0.4-14.5-1.3c-9.6-1.7-18.1-6.1-24.6-12.9c-5.8-6-9.6-13.6-10.5-20.9 c-10.9-4.6-18.9-15.3-23.3-31.1c-2.4-8.9-0.4-16.2,5.7-21.2c4.6-3.7,9.9-6.3,15.1-8.8c6-2.9,12.2-5.9,17.1-10.6 c8.7-8.2,12.2-18.9,15.8-30.2c1.2-3.8,2.5-7.8,4-11.6c2.3-6,4.2-12.3,6.1-18.3c3.2-10.4,6.2-20.2,11.2-28.9 c4.9-8.5,13.4-14.3,22.8-15.4c8.8-1.1,17.4,2.2,24,9.1c4.5,4.8,7.5,10.6,10.3,16.2c1.9,3.8,3.7,7.4,6,10.6 c3.6,5.1,8.5,8.9,13.3,12.5c2.4,1.8,4.9,3.7,7.1,5.8c18.2,16.4,26.5,42.5,22.2,69.8c-2.6,16.3-10.5,29-21.6,35 c-3.6,1.9-6.5,3.2-9.1,4.4c-4.6,2.1-8.6,3.8-14.3,8c-3.9,2.8-7.7,7.5-11.7,12.4c-7.5,9.2-16.1,19.7-29.4,24.1 C162.7,289.1,155.4,290.2,147.7,290.2z M175.9,79.3c-1.1,0-2.1,0.1-3.2,0.2c-9.2,1.1-17.6,6.8-22.4,15.2c-5,8.7-8,18.5-11.1,28.8 c-1.8,6.1-3.8,12.3-6.1,18.4c-1.5,3.8-2.8,7.8-4,11.6c-3.7,11.4-7.1,22.1-15.9,30.4c-5,4.7-11.2,7.7-17.3,10.7 c-5.2,2.5-10.5,5.1-15,8.7c-6.1,4.9-8,11.9-5.6,20.7c4.3,15.7,12.3,26.3,23.1,30.8l0.1,0.1l0,0.1c2.1,18.2,19.4,30.9,34.7,33.5 c12.8,2.2,25.2,1.5,36-2c13.2-4.3,21.7-14.7,29.2-23.9c4-4.9,7.8-9.6,11.8-12.5c5.8-4.2,9.8-6,14.4-8c2.6-1.2,5.5-2.5,9.1-4.4 c11-5.8,18.8-18.4,21.4-34.6c4.3-27.2-3.9-53.1-22-69.4c-2.2-2-4.7-3.9-7.1-5.7c-4.8-3.7-9.8-7.5-13.4-12.6c-2.3-3.2-4.1-6.8-6-10.7 c-2.8-5.6-5.7-11.4-10.2-16.1C190.6,82.5,183.5,79.3,175.9,79.3z M151.8,286.9c-4.7,0-9.5-0.4-14.5-1.2 c-19.5-3.2-31.9-17.8-34.1-30.7c-11.7-3.9-20.9-14.6-25.9-30.3c-2-6.3-2.7-15.2,5.3-21.9c4.5-3.7,9.7-6.3,14.9-8.8 c5.9-2.9,12-5.9,16.8-10.5c8.3-8,11.5-18.3,14.8-29.1c1.2-4,2.5-8.2,4.1-12.3c2.1-5.4,3.8-11,5.5-16.4c3.2-10.3,6.3-20,11.4-28.5 c4.9-8,13.2-13.3,22.3-14.3c8.8-0.9,17.2,2.4,23.7,9.4c4.4,4.7,7.2,10.4,9.9,16c1.8,3.6,3.4,7,5.5,10.1c3.2,4.7,7.7,8.3,12.1,11.7 c2.2,1.7,4.5,3.5,6.6,5.5c16.5,15.4,23.9,39.8,19.9,65.3c-2.4,15.2-9.6,27.6-19.6,33.8c-1.7,1.1-3.2,2-4.6,2.8 c-5.8,3.6-9,5.5-15.4,10.9c-3.1,2.6-6.1,6.6-9.4,10.9c-6.9,9-15.4,20.2-28.9,24.5C165.8,285.9,159,286.9,151.8,286.9z M77.7,224.5 c5,15.6,14.1,26.3,25.7,30.1l0.1,0l0,0.2c2.1,12.7,14.4,27.2,33.7,30.4c12.7,2.1,24.3,1.5,34.6-1.7c13.4-4.2,21.9-15.4,28.7-24.3 c3.3-4.3,6.3-8.3,9.5-11c6.4-5.4,9.6-7.4,15.5-11c1.4-0.8,2.9-1.8,4.6-2.8c9.9-6.2,16.9-18.4,19.3-33.5c4-25.4-3.3-49.6-19.7-64.9 c-2.1-1.9-4.3-3.7-6.6-5.4c-4.4-3.5-8.9-7-12.2-11.8c-2.1-3.1-3.7-6.5-5.5-10.2c-2.7-5.5-5.4-11.2-9.8-15.9 c-6.4-6.8-14.6-10.1-23.3-9.2c-8.9,0.9-17.1,6.2-21.9,14c-5.1,8.4-8.2,18.1-11.4,28.3c-1.7,5.4-3.5,11-5.5,16.4 c-1.6,4-2.8,8.2-4.1,12.2c-3.4,11-6.6,21.3-14.9,29.4c-4.9,4.7-11,7.7-16.9,10.6c-5.1,2.5-10.3,5.1-14.8,8.7 C75.1,209.7,75.8,218.4,77.7,224.5z M155.8,283.6c-4.6,0-9.4-0.4-14.4-1.2c-8.5-1.3-16.3-5-22.5-10.5c-5.5-4.9-9.2-10.9-10.7-17 c-12.6-3.2-22.7-13.7-28.5-29.6c-3.3-9.1-1.6-17.1,5-22.5c4.4-3.7,9.6-6.2,14.6-8.7c5.8-2.9,11.8-5.9,16.5-10.5 c7.9-7.8,10.8-17.7,13.9-28.2c1.2-4.2,2.5-8.6,4.2-12.9c1.8-4.7,3.4-9.6,5-14.4c3.3-10.2,6.4-19.8,11.7-28 c4.9-7.5,13-12.4,21.8-13.2c8.7-0.7,17,2.7,23.4,9.6c4.3,4.7,6.9,10.3,9.4,15.8c1.6,3.4,3.1,6.6,4.9,9.6c2.8,4.4,6.9,7.7,10.8,10.9 c2,1.6,4.1,3.4,6,5.2c15,14.6,21.4,36.8,17.6,60.9c-2.3,14.2-8.7,26.1-17.5,32.7c-6.6,4.9-8.8,7.2-13.4,11.9c-0.9,1-2,2-3.2,3.2 c-2.3,2.3-4.5,5.5-7.1,9.2c-6.5,9.3-14.6,20.9-28.4,25.1C169,282.7,162.7,283.6,155.8,283.6z M174.6,87.3c-0.8,0-1.5,0-2.3,0.1 c-8.6,0.7-16.6,5.6-21.4,12.9c-5.3,8.2-8.4,17.7-11.7,27.9c-1.5,4.7-3.1,9.7-5,14.4c-1.6,4.2-2.9,8.6-4.1,12.8 c-3.1,10.6-6,20.6-14,28.4c-4.8,4.7-10.8,7.7-16.6,10.6c-5,2.5-10.2,5-14.5,8.7c-4.5,3.8-9,10.6-4.8,22 c5.8,15.8,15.8,26.2,28.3,29.3l0.2,0l0,0.2c3.4,15.1,19.1,25.1,32.8,27.3c12.5,1.9,23.6,1.5,33.2-1.4c13.7-4.1,21.7-15.6,28.2-24.9 c2.6-3.7,4.9-7,7.2-9.3c1.2-1.2,2.2-2.3,3.2-3.2c4.6-4.7,6.8-7,13.4-11.9c8.8-6.5,15.1-18.3,17.3-32.4c3.8-23.9-2.5-45.9-17.4-60.4 c-1.9-1.8-4-3.5-6-5.1c-4-3.2-8.1-6.6-10.9-11c-1.9-2.9-3.4-6.2-5-9.6c-2.5-5.4-5.1-11-9.4-15.7C189.6,90.7,182.3,87.3,174.6,87.3z M160,280.3c-4.5,0-9.3-0.4-14.5-1.1c-17.7-2.6-29.1-14.4-32.2-24.4c-13.3-2.5-24.7-13.1-31.2-28.9l0,0c-2.2-5.3-4.5-15.5,4.6-23.2 c4.3-3.7,9.4-6.2,14.3-8.7c5.7-2.9,11.6-5.8,16.2-10.5c7.5-7.6,10.2-17.2,13-27.4c1.2-4.4,2.5-9,4.2-13.4c1.6-4.1,3-8.3,4.3-12.3 c3.4-10.1,6.6-19.6,12.1-27.6c4.9-7,12.8-11.5,21.3-12.1c8.7-0.5,16.9,3,23,9.9c4.1,4.6,6.6,10.2,9,15.6c1.4,3.2,2.8,6.2,4.4,9 c2.4,4.1,6.1,7.2,9.6,10.1c1.8,1.6,3.8,3.2,5.4,4.9c13.3,13.6,18.9,34.1,15.3,56.4c-2.5,15.7-8,26.9-15.5,31.5 c-4,5.2-6,7.7-8.8,11.2c-1.2,1.5-2.6,3.1-4.3,5.3c-1.6,1.9-3.1,4.5-5,7.4c-5.7,9.2-13.6,21.8-27.8,25.9 C172.2,279.5,166.4,280.3,160,280.3z M173.8,91.3c-0.6,0-1.1,0-1.7,0.1c-8.3,0.5-16.1,4.9-20.9,11.8c-5.5,7.9-8.6,17.4-12,27.4 c-1.4,4.1-2.8,8.3-4.3,12.4c-1.7,4.4-2.9,8.9-4.1,13.3c-2.8,10.2-5.5,19.9-13.1,27.6c-4.7,4.7-10.6,7.7-16.3,10.6 c-4.9,2.5-10,5-14.2,8.6c-8.8,7.5-6.6,17.4-4.4,22.6l0,0c6.4,15.7,17.7,26.1,31,28.6l0.2,0l0,0.1c3,9.8,14.2,21.6,31.8,24.1 c12.4,1.8,22.8,1.4,31.7-1.1c14.1-4.1,21.9-16.5,27.6-25.7c1.8-2.9,3.4-5.5,5-7.4c1.7-2.1,3.1-3.8,4.3-5.3c2.8-3.5,4.8-6,8.9-11.2 l0.1-0.1c7.2-4.4,12.8-15.8,15.3-31.2c3.6-22.1-1.9-42.5-15.1-55.9c-1.7-1.7-3.6-3.3-5.4-4.9c-3.5-3-7.2-6.1-9.7-10.3 c-1.7-2.8-3-5.8-4.4-9c-2.4-5.4-4.8-10.9-8.9-15.5C189.1,94.7,181.7,91.3,173.8,91.3z M164.3,277c-4.4,0-9.3-0.4-14.7-1.1 c-16.4-2.2-27.5-12.2-31.2-21.2c-14.3-1.9-26.6-12.1-33.8-28.1l0,0c-4.2-9.2-2.7-17.9,4.2-23.9c4.2-3.6,9.2-6.2,14.1-8.7 c5.6-2.9,11.4-5.8,15.9-10.4c7.2-7.4,9.6-16.7,12.1-26.6c1.2-4.6,2.4-9.3,4.1-13.8c1.3-3.4,2.5-6.9,3.7-10.2 c3.5-10,6.8-19.5,12.5-27.2c4.9-6.6,12.5-10.6,20.8-11c8.6-0.4,16.7,3.3,22.7,10.1c4,4.6,6.3,10.1,8.6,15.5c1.2,3,2.4,5.8,3.9,8.4 c2.1,3.7,5.3,6.6,8.4,9.3c1.7,1.5,3.4,3,4.9,4.6c11.6,12.5,16.3,31.4,13,51.9c-2.4,14.9-7.2,25.6-13.4,30.4 c-2.1,3.6-3.3,6.1-4.5,8.5c-1.4,2.8-2.7,5.4-5.2,9.4c-0.9,1.5-1.9,3.2-3,5.3c-4.9,9.1-12.3,22.9-27.1,26.9 C175.3,276.3,170.2,277,164.3,277z M85.1,226.3c7.2,15.9,19.4,26.1,33.6,27.9l0.1,0l0.1,0.1c3.6,8.9,14.5,18.8,30.8,21 c12.6,1.7,21.9,1.4,30.3-0.8c14.6-4,21.9-17.6,26.8-26.7c1.1-2.1,2.1-3.8,3-5.3c2.5-4,3.8-6.6,5.2-9.4c1.2-2.4,2.4-4.9,4.6-8.5 l0.1-0.1c6.1-4.6,10.8-15.3,13.2-30.1c3.3-20.3-1.4-39-12.8-51.5c-1.5-1.6-3.2-3.1-4.8-4.6c-3.1-2.8-6.4-5.6-8.5-9.5 c-1.5-2.6-2.6-5.5-3.9-8.5c-2.2-5.3-4.5-10.8-8.5-15.3c-5.9-6.8-13.9-10.3-22.3-10c-8.1,0.3-15.6,4.3-20.4,10.8 c-5.7,7.7-8.9,17.1-12.4,27.1c-1.2,3.4-2.4,6.9-3.7,10.3c-1.7,4.5-2.9,9.2-4.1,13.7c-2.6,9.9-5,19.3-12.2,26.8 c-4.6,4.7-10.4,7.7-16,10.5c-4.8,2.5-9.8,5-14,8.6C85.2,206.4,79.5,214,85.1,226.3L85.1,226.3z M168.6,273.7c-5,0-10-0.5-14.8-1.1 c-16.1-2-26.3-10.9-30.2-18c-15.2-1.2-28.5-11.2-36.5-27.4c-4.6-9.4-3.2-18.3,3.8-24.6c4.1-3.6,9-6.2,13.8-8.6 c5.5-2.8,11.2-5.8,15.6-10.4c6.9-7.2,9-16.3,11.3-25.8c1.1-4.7,2.3-9.6,4-14.2c1-2.7,2-5.4,2.9-8c3.4-9.6,7-19.5,12.9-27 c4.9-6.2,12.3-9.8,20.3-9.9c8.4-0.1,16.5,3.7,22.3,10.4c3.9,4.6,6.1,10.1,8.1,15.3c1.1,2.8,2.1,5.3,3.3,7.8c1.7,3.4,4.5,6,7.2,8.5 c1.5,1.4,3,2.8,4.3,4.3c9.8,11.5,13.7,28.8,10.6,47.4c-1.6,9.9-4.9,23-11.3,29.2c-1.7,3.9-2.3,6.7-3,9.4c-0.7,3-1.4,5.8-3.2,9.8 c-0.4,0.8-0.8,1.7-1.2,2.8c-3.9,9.1-10.5,24.4-26,28.4C178.1,273.2,173.3,273.7,168.6,273.7z M87.5,227c7.9,16.1,21.1,26,36.2,27.1 l0.1,0l0.1,0.1c5.7,10.5,19.1,16.6,29.9,17.9c9.4,1.1,19.4,1.9,28.9-0.6c15.3-3.9,21.8-19.1,25.7-28.1c0.4-1,0.8-1.9,1.2-2.8 c1.8-4,2.5-6.8,3.2-9.7c0.7-2.7,1.4-5.6,3.1-9.6l0.1-0.1c6.3-6.1,9.6-19.1,11.2-29c3-18.5-0.8-35.6-10.5-47 c-1.3-1.5-2.8-2.9-4.2-4.3c-2.7-2.5-5.5-5.2-7.3-8.7c-1.2-2.4-2.3-5-3.3-7.8c-2-5.2-4.2-10.7-8-15.2C188,102.8,180,99,171.8,99.2 c-7.8,0.1-15.1,3.7-19.9,9.7c-5.9,7.4-9.3,16.8-12.9,26.8c-0.9,2.6-1.9,5.4-2.9,8.1c-1.8,4.6-2.9,9.4-4,14.1 c-2.3,9.6-4.5,18.7-11.4,26.1c-4.4,4.7-10.2,7.7-15.7,10.5c-4.7,2.4-9.6,5-13.7,8.6C84.3,209.1,83,217.8,87.5,227z M173.1,270.4 c-4.9,0-9.9-0.5-15.3-1.1c-14.6-1.6-24.6-8.7-29.2-14.9c-15.9-0.5-30.5-10.4-39.1-26.6c-5.1-9.5-3.8-18.7,3.4-25.2 c4-3.6,8.8-6.1,13.5-8.6c5.4-2.8,11-5.8,15.3-10.4c6.6-7.1,8.5-15.9,10.5-25.1c1.1-4.8,2.1-9.8,3.9-14.5c0.7-1.9,1.4-3.8,2.1-5.6 c3.5-9.6,7.2-19.6,13.5-26.9c4.9-5.7,12-8.9,19.6-8.9c0.1,0,0.2,0,0.3,0c8.3,0.1,16.3,4,21.9,10.8c3.8,4.6,5.8,10,7.7,15.3 c0.9,2.5,1.7,4.8,2.8,7.1c1.4,3,3.7,5.4,6,7.7c1.3,1.3,2.6,2.6,3.7,4c8.2,10.6,11.2,25.8,8.3,42.9c-2.3,13.6-5.4,23.1-9.3,28.1 c-1.1,4.2-1.3,7.3-1.4,10.3c-0.1,3-0.2,6.2-1.4,10.4c-2.1,7.1-7.5,26-24.5,30.1C181.4,270,177.3,270.4,173.1,270.4z M89.9,227.6 c8.6,16.1,23.1,26,38.8,26.4l0.1,0l0.1,0.1c6.8,9.4,19.9,13.8,28.9,14.8c9.9,1.1,18.8,1.8,27.4-0.3c16.7-4,22.1-22.7,24.1-29.7 c1.2-4.1,1.3-7.1,1.4-10.2c0.1-3,0.2-6.2,1.4-10.4l0-0.1c3.9-4.9,7-14.3,9.2-27.9c2.8-16.9-0.1-32-8.2-42.5c-1.1-1.4-2.4-2.7-3.6-4 c-2.3-2.3-4.6-4.7-6.1-7.8c-1-2.2-1.9-4.6-2.8-7.1c-1.9-5.2-3.8-10.6-7.6-15.2c-5.5-6.6-13.4-10.5-21.5-10.6 c-7.6-0.1-14.7,3.1-19.5,8.7c-6.2,7.2-9.9,17.1-13.4,26.7c-0.7,1.9-1.4,3.8-2.1,5.7c-1.8,4.7-2.9,9.6-3.9,14.4 c-2.1,9.4-4,18.2-10.6,25.4c-4.3,4.7-10,7.6-15.4,10.5c-4.7,2.4-9.5,4.9-13.4,8.5C86.2,209.3,85,218.3,89.9,227.6z M177.6,267.1 c-4.5,0-9-0.4-13.4-0.8l-2.2-0.2c-16.5-1.5-25.7-9.3-28.2-11.8c-0.2,0-0.4,0-0.6,0c-16.6,0-31.9-9.6-41.2-25.9l0,0 c-5.4-9.5-4.3-19.2,3-25.9c3.9-3.6,8.7-6.1,13.3-8.5c5.3-2.8,10.8-5.7,15-10.4c6.3-6.9,8-15.5,9.8-24.5c1-4.9,2-10,3.8-14.8 c0.4-1,0.7-2,1.1-3c3.7-9.8,7.5-20,14.2-27.1c5-5.3,11.9-8.1,19.5-7.8c8.2,0.3,16.1,4.4,21.5,11.1c4.5,5.6,7.6,12.6,9.5,21.6 c1.4,2.2,2.9,4.2,4.4,6.1c1.2,1.5,2.3,3,3.4,4.6c6.5,9.5,8.6,23.1,6,38.4c-2.3,13.4-4.6,22-7.2,26.9c-0.6,4.4-0.2,7.8,0.3,11.1 c0.4,3.2,0.9,6.6,0.3,10.9c-0.5,4.2-4.1,25.2-21.7,29C184.6,266.9,181.1,267.1,177.6,267.1z M133.9,253.8L133.9,253.8 c2.5,2.4,11.6,10.2,28.1,11.8l2.2,0.2c7.9,0.8,16,1.5,23.7-0.2c17.3-3.8,20.8-24.5,21.3-28.6c0.5-4.2,0.1-7.5-0.3-10.7 c-0.4-3.3-0.9-6.8-0.3-11.3l0-0.1c2.6-4.9,4.9-13.4,7.2-26.8c2.6-15.1,0.5-28.7-5.9-38c-1.1-1.5-2.2-3-3.4-4.5 c-1.5-1.9-3.1-4-4.5-6.2l0-0.1c-1.9-8.9-5-16-9.4-21.5c-5.3-6.6-13-10.6-21.1-10.9c-7.4-0.3-14.2,2.5-19.1,7.7 c-6.6,7.1-10.4,17.2-14.1,27c-0.4,1-0.7,2-1.1,3c-1.8,4.7-2.8,9.8-3.8,14.7c-1.7,8.7-3.5,17.7-9.9,24.8c-4.2,4.7-9.8,7.6-15.2,10.5 c-4.6,2.4-9.3,4.9-13.2,8.5c-7.2,6.6-8.3,15.9-2.9,25.3c9.3,16.3,24.8,25.9,41.4,25.6L133.9,253.8z M182.1,263.9 c-3.8,0-7.6-0.3-11.3-0.7c-1.6-0.1-3.2-0.3-4.8-0.4c-14.4-1.1-23.8-6.3-27.2-8.6c-17.7,1-34.3-8.4-44.4-25.2 c-5.8-9.6-4.9-19.6,2.6-26.6c3.8-3.6,8.5-6.1,13-8.5c5.2-2.8,10.7-5.7,14.7-10.3c6-6.8,7.5-15.1,9-23.9c0.9-5,1.8-10.2,3.6-15 c3.8-10.1,7.8-20.6,15.1-27.6c5.1-4.9,11.9-7.3,19.2-6.8c8.1,0.6,15.8,4.7,21,11.4c4.4,5.6,7.2,12.6,8.5,20.9c1,1.8,2.1,3.5,3.2,5.1 c1,1.5,2,3,2.8,4.5c4.8,8.5,6.1,20.2,3.7,33.9c-1,5.7-2.1,11-3.2,15.7c-0.9,3.9-1.6,7.3-2,10.1c-0.8,5,0.5,8.9,1.8,13 c1,3.2,2.1,6.5,2.2,10.4c0.2,6.7-2.8,24.8-18.9,28C187.9,263.7,185,263.9,182.1,263.9z M139,253.7L139,253.7 c3.4,2.3,12.7,7.6,27.1,8.6c1.6,0.1,3.2,0.3,4.8,0.4c6.5,0.6,13.3,1.2,19.8-0.1c15.7-3.1,18.7-20.9,18.5-27.5 c-0.1-3.9-1.2-7.1-2.2-10.3c-1.4-4.2-2.6-8.1-1.8-13.2c0.4-2.8,1.2-6.2,2-10.1c1-4.7,2.2-10,3.1-15.6c2.3-13.6,1.1-25.2-3.6-33.6 c-0.9-1.5-1.8-3-2.8-4.5c-1.1-1.6-2.2-3.3-3.2-5.2l0-0.1c-1.3-8.2-4.1-15.2-8.4-20.7c-5.1-6.6-12.6-10.7-20.6-11.2 c-7.2-0.5-13.8,1.9-18.8,6.7c-7.2,7-11.1,17.4-14.9,27.5c-1.8,4.8-2.7,9.9-3.6,14.9c-1.5,8.5-3.1,17.3-9.2,24.2 c-4.1,4.7-9.6,7.6-14.9,10.5c-4.5,2.4-9.1,4.9-12.9,8.4c-7.3,6.8-8.2,16.5-2.5,25.9C104.9,245.4,121.3,254.7,139,253.7L139,253.7z M186.7,260.7c-3.3,0-6.7-0.3-10-0.6c-2.2-0.2-4.4-0.4-6.6-0.5c-12.6-0.7-21.8-3.7-26.2-5.5c-18.6,1.7-36.2-7.4-47.1-24.4 c-6.2-9.7-5.4-19.9,2.2-27.2c3.7-3.6,8.3-6.1,12.7-8.5c5.1-2.8,10.5-5.7,14.4-10.3c5.7-6.7,7-14.8,8.3-23.4 c0.8-5.1,1.6-10.3,3.5-15.2c3.3-8.8,7.5-18.8,14.8-25.2c5.1-4.5,11.8-6.6,18.9-5.8c8,0.8,15.4,5.1,20.4,11.8 c3.8,5.1,5.2,10.9,6.6,16.5c0.3,1.2,0.6,2.4,0.9,3.6c0.5,1.9,1.5,3.6,2.4,5.2c0.6,1.1,1.3,2.2,1.8,3.4c3.1,7.4,3.6,17,1.4,29.4 c-1.7,9.4-3.1,18.4-3.2,24.6c0,5.4,1.8,9.6,3.8,14.1c1.4,3.3,2.9,6.7,3.7,10.7c0.9,5.1,0,13.4-4.2,19.3c-2.9,4.2-6.9,6.7-12,7.6 C191.2,260.6,188.9,260.7,186.7,260.7z M144,253.6L144,253.6c4.4,1.8,13.6,4.8,26.2,5.5c2.2,0.1,4.4,0.3,6.6,0.5 c5.5,0.5,11.1,1,16.5,0.1c4.9-0.8,8.8-3.3,11.6-7.4c4.1-5.9,5-13.9,4.1-19c-0.7-3.9-2.2-7.3-3.6-10.6c-2-4.5-3.8-8.8-3.8-14.3 c0-6.2,1.5-15.2,3.2-24.7c2.2-12.3,1.7-21.9-1.3-29.1c-0.5-1.1-1.1-2.2-1.8-3.3c-1-1.6-2-3.3-2.5-5.3c-0.3-1.2-0.6-2.4-0.9-3.6 c-1.4-5.6-2.8-11.4-6.5-16.4c-4.9-6.5-12.2-10.8-20.1-11.6c-6.9-0.7-13.5,1.3-18.5,5.7c-7.2,6.4-11.4,16.2-14.6,25 c-1.8,4.8-2.6,10-3.4,15.1c-1.3,8.3-2.6,16.8-8.5,23.6c-4,4.7-9.4,7.6-14.6,10.4c-4.4,2.4-8.9,4.8-12.6,8.4 c-7.4,7.1-8.2,17.1-2.1,26.6l0,0C108.1,246.2,125.5,255.3,144,253.6L144,253.6z M191.1,257.5c-3,0-6.1-0.3-9.1-0.6 c-2.5-0.3-5.2-0.5-7.8-0.6c-5.4-0.2-10.5-0.8-14.9-1.3c-3.7-0.5-7.2-0.9-10.3-1c-22.8-0.6-39.5-8.5-49.8-23.7 c-6.7-9.9-6-20.3,1.8-27.9c3.6-3.6,8.1-6,12.4-8.4c5.1-2.8,10.3-5.7,14.1-10.3c5.5-6.6,6.5-14.5,7.7-22.9c0.7-5.1,1.4-10.4,3.2-15.3 c2.6-6.9,6.9-16.8,14.5-22.7c5.2-4.1,11.8-5.8,18.7-4.8c7.9,1.1,15.1,5.5,19.8,12.1c4.2,5.8,5.3,12.4,6.5,18.8l0.1,0.6 c0.3,1.5,0.8,2.9,1.3,4.2c0.4,1.1,0.8,2.2,1.1,3.3c1.8,7.4,0.6,16.3-0.9,24.9c-1.6,9-2,17.3-1.1,23.4c0.9,5.8,3.3,10.4,5.9,15.4 c1.8,3.4,3.7,6.9,4.9,10.8c1.6,4.8,1.6,12.7-2,18.6c-2.5,4-6.4,6.6-11.3,7.3C194.4,257.4,192.8,257.5,191.1,257.5z M99.7,230 c10.1,15,26.7,22.9,49.3,23.4c3.1,0.1,6.6,0.5,10.4,1c4.4,0.6,9.5,1.2,14.9,1.3c2.6,0.1,5.3,0.4,7.8,0.6c4.6,0.5,9.3,1,13.9,0.3 c4.8-0.7,8.5-3.1,10.9-7c3.6-5.8,3.5-13.5,2-18.2c-1.3-3.9-3.1-7.3-4.9-10.7c-2.6-5-5.1-9.7-6-15.5c-0.9-6.1-0.5-14.5,1.1-23.6 c1.5-8.5,2.7-17.4,0.9-24.7c-0.3-1.1-0.7-2.1-1.1-3.2c-0.5-1.3-1.1-2.7-1.3-4.3l-0.1-0.6c-1.1-6.3-2.2-12.9-6.4-18.6 c-4.7-6.5-11.8-10.8-19.5-11.9c-6.7-1-13.2,0.7-18.3,4.7c-7.5,5.9-11.8,15.7-14.4,22.5c-1.8,4.8-2.5,10.1-3.2,15.2 c-1.1,8.1-2.2,16.5-7.8,23.2c-3.9,4.7-9.2,7.6-14.3,10.4c-4.3,2.4-8.7,4.8-12.3,8.3C93.8,210.2,93.2,220.4,99.7,230z M195.4,254.4 c-2.9,0-5.7-0.4-8.5-0.7c-2.8-0.3-5.7-0.7-8.5-0.7c0,0,0,0,0,0c-10.1,0-17.8,0.3-24.2,0.8c-21.7,1.8-40.8-6.5-52.4-22.9 c-7-9.8-6.4-20.8,1.4-28.6c3.6-3.5,7.9-6,12.2-8.4c5-2.8,10.1-5.6,13.8-10.3c5.2-6.5,6.1-14.6,7-22.4c0.6-5.2,1.2-10.5,3-15.4 c3.5-9.3,8.3-16.2,14.3-20.3c11.6-8,28.9-4,37.6,8.7c3.4,5,5.2,10.7,5.6,18.7c0.1,1,0.2,1.9,0.3,2.8c0.2,1.2,0.3,2.4,0.3,3.6 c0,4.6-1,9.5-2.1,14.7c-0.4,1.8-0.8,3.8-1.1,5.7c-1.4,7.5-1.1,15.4,0.9,22.2c1.8,6.2,5.1,11.7,8.4,17c2.1,3.4,4.2,6.9,5.9,10.6 c2.2,4.7,3.1,12.3-0.1,18.1c-2.1,3.8-5.7,6.1-10.4,6.7C197.6,254.4,196.5,254.4,195.4,254.4z M178.4,252.5c2.9,0,5.8,0.4,8.6,0.7 c3.8,0.5,7.8,1,11.7,0.5c4.5-0.5,8-2.7,10-6.4c3.1-5.7,2.2-13.1,0.1-17.7c-1.7-3.7-3.9-7.2-5.9-10.5c-3.2-5.3-6.6-10.8-8.4-17.1 c-2-6.9-2.3-14.9-0.9-22.5c0.4-1.9,0.8-3.8,1.1-5.7c1.1-5.1,2.1-10,2.1-14.6c0-1.2-0.2-2.3-0.3-3.5c-0.1-0.9-0.3-1.9-0.3-2.9 c-0.4-7.9-2.1-13.6-5.5-18.4c-8.6-12.5-25.5-16.4-36.9-8.5c-5.9,4.1-10.6,10.8-14.1,20c-1.8,4.9-2.4,10.2-3,15.3 c-0.9,7.9-1.8,16.1-7.1,22.7c-3.8,4.7-9,7.6-14,10.4c-4.2,2.3-8.6,4.8-12.1,8.3c-7.6,7.6-8.2,18.3-1.4,27.9 c11.5,16.3,30.4,24.5,52,22.7C160.5,252.8,168.3,252.5,178.4,252.5C178.4,252.5,178.4,252.5,178.4,252.5z M149.2,254.6 c-17.5,0-34.1-8.3-45-23.1c-7.3-9.9-7-21.1,1-29.2c3.5-3.5,7.8-6,11.9-8.3c4.9-2.8,9.9-5.6,13.5-10.3c5-6.4,5.7-14.3,6.4-22 c0.5-5.2,0.9-10.6,2.8-15.5c2.9-7.9,7.9-14.2,14-17.8c5.9-3.5,13.1-4.3,20.2-2.2c6.7,2,12.8,6.5,16.6,12.2c3.8,5.7,5.3,11.8,4.6,18 l0,0c-0.2,1.8-0.6,3.6-1.2,5.3c-0.7,2-1.4,3.9-2.2,5.8c-1.3,3.2-2.7,6.5-3.3,10c-1.2,6.4-0.2,13.7,2.9,21.1 c3,6.9,7.3,13.3,11.5,19.4c2.1,3.1,4.3,6.3,6.3,9.5c3.5,5.7,4.2,13,1.7,17.8c-1.8,3.5-5,5.5-9.5,5.9c-3.4,0.3-6.7-0.2-10-0.7 c-2.9-0.4-5.9-0.9-8.9-0.8c-5.5,0.2-11.1,1.4-16.4,2.5c-2.2,0.5-4.6,1-6.8,1.4C155.9,254.3,152.5,254.6,149.2,254.6z M166.2,125.5 c-4.3,0-8.5,1.1-12.2,3.3c-6,3.6-10.9,9.8-13.8,17.6c-1.8,4.9-2.3,10.2-2.7,15.4c-0.7,7.7-1.4,15.7-6.5,22.2 c-3.7,4.7-8.8,7.6-13.7,10.4c-4.1,2.3-8.4,4.7-11.8,8.2c-7.8,7.9-8.2,18.9-1,28.6c12.8,17.4,33.7,25.8,54.6,22 c2.3-0.4,4.6-0.9,6.8-1.4c5.4-1.2,10.9-2.4,16.5-2.6c3-0.1,6,0.4,9,0.8c3.2,0.5,6.6,1,9.9,0.7c4.2-0.4,7.4-2.3,9.1-5.6 c2.4-4.7,1.7-11.8-1.7-17.3c-2-3.2-4.1-6.4-6.2-9.5c-4.2-6.2-8.6-12.5-11.5-19.5c-3.2-7.5-4.2-14.9-3-21.4c0.7-3.5,2-6.8,3.4-10.1 c0.8-1.9,1.6-3.8,2.2-5.8c0.6-1.7,1-3.5,1.2-5.2c0.7-6.1-0.8-12-4.5-17.7c-3.7-5.7-9.7-10.1-16.3-12 C171.3,125.9,168.7,125.5,166.2,125.5z"/></g></svg>