<?xml version="1.0" encoding="UTF-8"?><svg xmlns="http://www.w3.org/2000/svg" xmlns:xlink="http://www.w3.org/1999/xlink" height="1800.0" preserveAspectRatio="xMidYMid meet" version="1.0" viewBox="0.0 0.0 2880.0 1800.0" width="2880.0" zoomAndPan="magnify"><g><defs><g id="change1_1"><path d="M0 0H2880V1800H0z" id="a"/></g></defs><clipPath id="b"><use overflow="visible" xlink:actuate="onLoad" xlink:href="#a" xlink:show="embed" xlink:type="simple" xmlns:xlink="http://www.w3.org/1999/xlink"/></clipPath><g clip-path="url(#b)" fill="none" stroke="#ccc" stroke-miterlimit="10"><path d="M-295.82,185.08C-251.09,74.97-181.56-27.68-83.94-95.47s225.41-97.06,338.77-61.38 c169.47,53.34,269.04,236.37,287.4,413.09c18.36,176.72-26.34,352.95-54.28,528.41c-17.6,110.55-23.15,238.88,56.04,318 c73.64,73.59,192.41,74.54,294.68,55.08c207.23-39.43,422.86-141.37,618.78-63.16c131.42,52.46,222.63,180.56,257.41,317.72 c15.81,62.34,28.43,136.91,86.31,164.96c55.71,27,120.88-5.97,172.36-40.35c197.38-131.85,393.16-305.83,630.52-303.56 c57.75,0.55,116.21,12.41,166.44,40.89c161.95,91.82,195.3,322.32,347.74,429.2"/><path d="M-294.48,196.05C-246.52,89.64-175.62-12.39-77.7-80.57c11.55-8.04,23.5-15.56,35.79-22.51 c91.86-51.99,203.35-72.38,303.61-41.54c27.11,8.33,52.48,20.04,76.04,34.63c40.3,24.97,75.06,58.27,104.12,96.8 c60.43,80.15,96.24,182.85,106.11,283.59c3.73,37.98,4.57,75.94,3.3,113.85c-4.64,139.15-37.5,277.81-59.33,416.2 c-17.19,108.43-22.54,234.28,55.16,311.84c15.21,15.14,32.67,26.72,51.26,35.58c74.97,35.61,168.34,28.04,251.96,8.69 c49.84-11.55,100.27-26.14,151.43-39.51c60.05-15.69,120.7-29.32,179.14-36.65c79.72-10.21,155.28-9.85,227.79,11.01 c21.24,6.12,42.09,14.4,63.6,24.04c46.65,20.9,89.43,50.1,126.34,85.46c41.79,40.02,75.84,86.93,100.68,137.65 c12.93,26.39,23.43,53.8,31.36,81.58c16.63,58.36,30.06,128.35,86.95,153.56c54.75,24.28,118.56-9.13,169.24-43.88 c40.03-27.46,80.02-56.61,120.38-85.59c155.6-111.68,317.5-220.96,504.82-218.81c18.05,0.21,36.17,1.53,54.09,4.14 c39.08,5.68,77.15,17.44,111.42,36.88c64.15,36.39,108.39,94.49,147.68,158.03c59.37,95.98,107.53,204.34,196.99,269.68"/><path d="M-293.13,207.03C-241.94,104.31-169.68,2.9-71.46-65.66c11.58-8.08,23.55-15.66,35.84-22.69 c91.89-52.52,203.65-74.24,304.18-44.04c27.21,8.17,52.72,19.78,76.42,34.42c40.48,25.01,75.22,58.63,104.14,97.42 c60.22,80.81,95.26,183.9,104.59,285.1c3.52,38.12,4.16,76.21,2.71,114.22c-5.36,139.61-38.77,278.58-60.49,417.47 c-16.78,106.31-21.92,229.68,54.29,305.67c15.75,15.62,34.23,27.02,53.66,35.43c78.52,33.8,172.78,21.14,258.1-1.98 c50.87-13.82,102.47-30.25,155.43-43.95c62.2-16.08,125.47-27.47,184.76-31.26c80.73-5.16,153.96,1.61,223.47,27.74 c20.36,7.66,40.13,17.76,61.48,28.41c44.98,22.43,87.67,51.4,124.86,85.71c42.12,38.82,76.76,82.59,102.13,129.9 c13.21,24.62,24.04,50.17,32.36,76.05c17.46,54.38,31.68,119.79,87.59,142.17c53.79,21.56,116.24-12.3,166.12-47.41 c39.42-27.77,78.83-57.14,118.67-86.28c153.52-112.23,315.05-221.45,501.22-218.96c17.95,0.24,35.97,1.6,53.8,4.24 c38.87,5.75,76.69,17.56,110.77,36.9c63.77,36.19,108.12,93.79,147.34,156.82c59.31,95.29,107.03,202.99,194.26,269.4"/><path d="M-291.79,218c54.42-99.02,128.06-199.81,226.57-268.76c11.61-8.13,23.6-15.77,35.9-22.86 c91.92-53.05,203.95-76.1,304.75-46.54c27.31,8,52.96,19.52,76.8,34.21c40.65,25.06,75.37,58.99,104.16,98.04 c60,81.48,94.29,184.95,103.07,286.61c3.32,38.25,3.76,76.48,2.11,114.59c-6.08,140.06-40.04,279.34-61.64,418.73 c-16.37,104.18-21.31,225.08,53.41,299.5c16.29,16.11,35.78,27.32,56.06,35.28c82.07,31.98,177.22,14.25,264.24-12.64 c51.91-16.08,104.68-34.36,159.44-48.38c64.35-16.47,130.22-25.27,190.38-25.87c81.71-0.81,152.63,13.08,219.14,44.47 c19.48,9.21,38.14,21.08,59.37,32.77c43.3,23.85,85.91,52.71,123.38,85.95c42.46,37.63,77.68,78.24,103.57,122.16 c13.49,22.84,24.65,46.54,33.37,70.52c18.28,50.4,33.31,111.23,88.23,130.77c52.83,18.85,113.92-15.47,163-50.94 c38.81-28.08,77.64-57.67,116.95-86.97c151.45-112.79,312.61-221.94,497.61-219.1c17.85,0.28,35.77,1.67,53.5,4.34 c38.65,5.82,76.22,17.68,110.13,36.93c63.39,35.99,107.86,93.08,147.01,155.62c59.24,94.6,106.53,201.65,191.52,269.11"/><path d="M-290.45,228.98c57.65-95.32,132.65-195.5,231.47-264.83c11.65-8.17,23.65-15.87,35.95-23.04 c91.95-53.58,204.25-77.96,305.31-49.04c27.41,7.83,53.19,19.26,77.17,34C400.3-48.82,435-14.57,463.64,24.73 c59.79,82.14,93.31,186,101.55,288.12c3.11,38.38,3.35,76.75,1.51,114.96c-6.79,140.52-41.31,280.1-62.8,420 c-15.96,102.06-20.87,220.65,52.54,293.34c16.8,16.63,37.34,27.62,58.45,35.13c85.63,30.16,181.66,7.35,270.38-23.31 c52.95-18.35,106.88-38.47,163.45-52.81c66.5-16.86,134.96-23.95,196-20.48c82.68,4.69,151.3,24.55,214.81,61.2 c18.6,10.75,36.14,24.37,57.25,37.14c41.63,25.18,84.15,54.01,121.9,86.2c42.8,36.44,78.6,73.9,105.02,114.42 c13.76,21.07,25.25,42.91,34.37,64.99c19.1,46.42,34.94,102.67,88.87,119.38c51.88,16.13,111.59-18.63,159.88-54.46 c38.2-28.39,76.44-58.2,115.24-87.67c149.37-113.34,310.17-222.43,494.01-219.24c17.75,0.31,35.57,1.74,53.21,4.45 c38.43,5.89,75.76,17.79,109.48,36.95c63,35.79,107.6,92.38,146.67,154.41c59.18,93.92,106.02,200.31,188.78,268.83"/><path d="M-289.1,239.95c60.89-91.63,137.25-191.18,236.37-260.89c11.68-8.21,23.7-15.97,36.01-23.22 c91.99-54.12,204.56-79.82,305.88-51.53c27.52,7.66,53.43,18.99,77.55,33.79c41,25.15,75.68,59.72,104.19,99.28 c59.57,82.8,92.34,187.05,100.03,289.64c2.91,38.52,2.95,77.01,0.91,115.33c-7.51,140.97-42.58,280.86-63.95,421.27 c-15.55,99.94-20.28,216.08,51.66,287.17c17.33,17.13,38.9,27.92,60.85,34.98c89.18,28.34,186.1,0.45,276.53-33.97 c53.99-20.62,109.09-42.58,167.45-57.25c68.64-17.25,139.7-22.2,201.61-15.09c83.64,9.6,149.98,36.02,210.48,77.93 c17.72,12.3,34.13,27.63,55.14,41.51c39.97,26.42,82.39,55.31,120.42,86.44c43.13,35.24,79.52,69.56,106.47,106.68 c14.04,19.3,25.86,39.28,35.38,59.46c19.93,42.44,36.56,94.11,89.51,107.98c50.92,13.41,109.27-21.8,156.77-57.99 c37.59-28.7,75.25-58.73,113.53-88.36c147.3-113.89,307.72-222.92,490.4-219.39c17.65,0.34,35.37,1.81,52.92,4.55 c38.22,5.96,75.3,17.91,108.84,36.98c62.62,35.59,107.34,91.68,146.34,153.21c59.12,93.23,105.52,198.96,186.05,268.55"/><path d="M-287.76,250.93C-223.64,163-145.91,64.07-46.49-6.03c11.71-8.26,23.75-16.08,36.07-23.39 c92.02-54.65,204.86-81.68,306.45-54.03c27.62,7.49,53.66,18.73,77.93,33.58c41.17,25.2,75.84,60.08,104.2,99.9 c59.36,83.46,91.37,188.1,98.51,291.15c2.71,38.65,2.54,77.28,0.32,115.7c-8.23,141.43-43.85,281.62-65.11,422.53 c-15.14,97.82-19.69,211.5,50.79,281c17.87,17.62,40.45,28.22,63.25,34.83c92.73,26.53,190.54-6.45,282.67-44.64 c55.02-22.88,111.29-46.68,171.46-61.68c70.79-17.64,144.43-20.46,207.23-9.71c84.6,14.49,148.65,47.48,206.16,94.65 c16.85,13.84,32.12,30.85,53.02,45.88c38.33,27.57,80.63,56.62,118.93,86.69c43.47,34.05,80.45,65.22,107.92,98.93 c14.32,17.52,26.47,35.65,36.38,53.93c20.75,38.46,38.19,85.55,90.15,96.59c49.96,10.7,106.95-24.97,153.65-61.52 c36.97-29.01,74.06-59.26,111.81-89.05c145.22-114.44,305.28-223.41,486.8-219.53c17.55,0.38,35.16,1.88,52.62,4.65 c38,6.03,74.83,18.03,108.19,37c62.24,35.4,107.07,90.97,146,152.01c59.06,92.55,105.02,197.62,183.31,268.26"/><path d="M-286.42,261.91C-219.07,177.67-139.97,79.36-40.25,8.87C-28.5,0.57-16.45-7.31-4.13-14.7 c92.05-55.18,205.16-83.54,307.02-56.53c27.72,7.32,53.9,18.47,78.31,33.37c41.35,25.25,75.99,60.45,104.22,100.52 c59.15,84.12,90.39,189.15,96.99,292.66c2.5,38.78,2.14,77.55-0.28,116.07c-8.95,141.88-44.81,282.43-66.26,423.8 c-14.53,95.73-19.1,206.92,49.92,274.84c18.41,18.11,42.01,28.52,65.64,34.68c96.28,24.71,194.98-13.34,288.81-55.31 c56.06-25.15,113.49-50.79,175.46-66.11c72.94-18.03,149.16-18.74,212.85-4.32c85.56,19.37,147.32,58.95,201.83,111.38 c15.97,15.39,30.12,34.03,50.91,50.25c36.71,28.63,78.87,57.92,117.45,86.94c43.8,32.86,81.37,60.88,109.36,91.19 c14.6,15.75,27.07,32.03,37.39,48.41c21.58,34.48,39.81,76.99,90.78,85.19c49,7.98,104.63-28.13,150.53-65.05 c36.36-29.32,72.87-59.79,110.1-89.74c143.15-115,302.83-223.9,483.19-219.68c17.45,0.41,34.96,1.95,52.33,4.76 c37.78,6.1,74.37,18.15,107.55,37.03c61.85,35.2,106.81,90.27,145.66,150.8c59,91.86,104.52,196.27,180.57,267.98"/><path d="M-285.07,272.88c70.58-80.53,151.05-178.23,251.07-249.1C-22.23,15.43-10.15,7.49,2.17,0.03 c92.08-55.71,205.46-85.4,307.59-59.03c27.82,7.16,54.14,18.21,78.69,33.16C429.97-0.54,464.59,34.98,492.68,75.3 c58.93,84.78,89.42,190.2,95.47,294.17c2.3,38.92,1.73,77.81-0.88,116.44c-9.67,142.34-46.05,283.19-67.42,425.07 c-14.1,93.61-18.5,202.33,49.04,268.67c18.94,18.61,43.57,28.81,68.04,34.53c99.84,22.89,199.42-20.24,294.95-65.97 c57.1-27.42,115.7-54.9,179.47-70.54c75.09-18.42,153.9-17.02,218.47,1.07c86.52,24.24,146,70.42,197.5,128.11 c15.09,16.94,28.12,37.18,48.79,54.61c35.14,29.62,77.11,59.23,115.97,87.18c44.14,31.67,82.29,56.53,110.81,83.45 c14.88,13.98,27.68,28.4,38.39,42.88c22.4,30.5,41.44,68.43,91.42,73.8c48.05,5.27,102.3-31.3,147.41-68.58 c35.75-29.63,71.68-60.32,108.39-90.44c141.07-115.55,300.39-224.39,479.59-219.82c17.35,0.45,34.76,2.02,52.04,4.86 c37.57,6.17,73.91,18.26,106.9,37.05c61.47,35,106.55,89.56,145.33,149.6c58.94,91.18,104.01,194.93,177.84,267.69"/><path d="M-283.73,283.86c73.81-76.84,155.64-173.92,255.97-245.17c11.81-8.39,23.9-16.39,36.23-23.92 c92.11-56.25,205.76-87.26,308.16-61.52c27.92,6.99,54.37,17.95,79.06,32.95c41.7,25.34,76.3,61.17,104.25,101.76 c58.72,85.44,88.44,191.25,93.95,295.68c2.09,39.05,1.33,78.08-1.47,116.81c-10.38,142.79-47.29,283.96-68.57,426.33 c-13.68,91.49-17.89,197.74,48.17,262.5c19.48,19.1,45.12,29.11,70.44,34.38c103.39,21.07,203.86-27.14,301.09-76.64 c58.14-29.68,117.9-59.01,183.47-74.98c77.24-18.8,158.63-15.31,224.09,6.46c87.48,29.09,144.67,81.88,193.18,144.84 c14.21,18.48,26.13,40.3,46.68,58.98c33.59,30.54,75.35,60.53,114.49,87.43c44.47,30.47,83.21,52.19,112.26,75.7 c15.15,12.2,28.32,24.75,39.4,37.35c23.28,26.47,43.06,59.87,92.06,62.41c47.09,2.55,99.98-34.47,144.29-72.11 c35.14-29.94,70.48-60.85,106.67-91.13c139-116.1,297.95-224.88,475.99-219.96c17.25,0.48,34.56,2.09,51.75,4.96 c37.35,6.24,73.45,18.38,106.26,37.08c61.09,34.8,106.29,88.86,144.99,148.4c58.88,90.49,103.51,193.59,175.1,267.41"/><path d="M-282.39,294.83c77.05-73.14,160.24-169.6,260.86-241.24C-9.68,45.16,2.43,37.1,14.77,29.5 c92.14-56.78,206.06-89.12,308.73-64.02c28.02,6.82,54.61,17.69,79.44,32.74c41.87,25.38,76.45,61.54,104.27,102.38 c58.5,86.1,87.47,192.3,92.43,297.2c1.89,39.18,0.92,78.35-2.07,117.19c-11.1,143.25-48.53,284.72-69.73,427.6 c-13.26,89.37-17.29,193.14,47.29,256.34c20.02,19.59,46.68,29.41,72.84,34.23c106.94,19.26,208.3-34.03,307.24-87.3 c59.18-31.95,120.11-63.12,187.48-79.41c79.39-19.19,163.37-13.61,229.7,11.85c88.45,33.94,143.34,93.35,188.85,161.57 c13.33,20.03,24.17,43.39,44.56,63.35c32.09,31.4,73.59,61.84,113.01,87.68c44.81,29.28,84.13,47.85,113.7,67.96 c15.43,10.43,28.92,21.11,40.4,31.82c24.1,22.48,44.69,51.31,92.7,51.01c46.13-0.17,97.66-37.63,141.17-75.64 c34.53-30.25,69.29-61.38,104.96-91.82c136.92-116.65,295.5-225.37,472.38-220.11c17.15,0.51,34.36,2.16,51.45,5.06 c37.14,6.31,72.98,18.5,105.61,37.1c60.7,34.6,106.02,88.16,144.65,147.19c58.82,89.81,103.01,192.24,172.37,267.12"/><path d="M-281.04,305.81c80.28-69.44,164.84-165.28,265.76-237.31c11.88-8.48,24-16.59,36.35-24.27 c92.17-57.31,206.37-90.98,309.3-66.52c28.12,6.65,54.84,17.43,79.82,32.53c42.04,25.43,76.61,61.9,104.28,103 c58.29,86.77,86.5,193.35,90.91,298.71c1.68,39.32,0.52,78.62-2.67,117.56c-11.82,143.7-49.78,285.49-70.88,428.87 c-12.84,87.25-16.68,188.55,46.42,250.17c20.56,20.08,48.24,29.71,75.23,34.08c110.5,17.44,212.74-40.93,313.38-97.97 c60.21-34.21,122.31-67.22,191.49-83.84c81.54-19.58,168.11-11.91,235.32,17.23c89.42,38.77,142.02,104.82,184.52,178.29 c12.45,21.57,22.23,46.45,42.45,67.72c30.63,32.21,71.83,63.14,111.53,87.92c45.14,28.09,85.05,43.51,115.15,60.22 c15.71,8.65,29.53,17.48,41.41,26.29c24.93,18.49,46.31,42.75,93.34,39.62c45.17-2.88,95.34-40.8,138.06-79.16 c33.92-30.56,68.1-61.91,103.24-92.51c134.85-117.21,293.06-225.86,468.78-220.25c17.05,0.55,34.16,2.23,51.16,5.17 c36.92,6.38,72.52,18.62,104.97,37.13c60.32,34.4,105.76,87.45,144.32,145.99c58.76,89.12,102.51,190.9,169.63,266.84"/><path d="M-279.7,316.78C-196.19,251.03-110.26,155.81-9.04,83.4c11.91-8.52,24.05-16.7,36.4-24.45 c92.2-57.84,206.67-92.84,309.86-69.02c28.22,6.48,55.08,17.17,80.2,32.32c42.22,25.48,76.76,62.27,104.3,103.62 c58.07,87.43,85.52,194.4,89.4,300.22c1.48,39.45,0.11,78.88-3.27,117.93c-12.54,144.16-51.03,286.25-72.04,430.13 c-12.43,85.13-16.06,183.94,45.54,244c21.1,20.57,49.8,30.01,77.63,33.93c114.05,15.62,217.18-47.83,319.52-108.63 c61.25-36.48,124.52-71.33,195.49-88.28c83.68-19.97,172.85-10.22,240.94,22.62c90.39,43.6,140.69,116.28,180.19,195.02 c11.57,23.12,20.31,49.47,40.33,72.08c29.21,32.98,70.07,64.44,110.04,88.17c45.48,26.9,85.97,39.17,116.6,52.48 c15.99,6.88,30.13,13.84,42.41,20.76c25.74,14.5,47.94,34.19,93.98,28.22c44.22-5.6,93.01-43.97,134.94-82.69 c33.31-30.87,66.91-62.44,101.53-93.21c132.78-117.76,290.61-226.35,465.17-220.39c16.95,0.58,33.96,2.3,50.87,5.27 c36.7,6.45,72.06,18.73,104.32,37.15c59.94,34.21,105.5,86.75,143.98,144.78c58.7,88.44,102.01,189.56,166.89,266.56"/><path d="M-278.36,327.76C-191.62,265.71-104.32,171.11-2.8,98.31c11.95-8.56,24.1-16.8,36.46-24.62 c92.23-58.38,206.97-94.7,310.43-71.51c28.32,6.32,55.32,16.91,80.57,32.11c42.39,25.52,76.91,62.63,104.32,104.24 c57.86,88.09,84.55,195.45,87.88,301.73c1.27,39.58-0.29,79.15-3.86,118.3c-13.25,144.61-52.29,287.01-73.19,431.4 c-12.02,83.01-15.45,179.34,44.67,237.84c21.64,21.06,51.35,30.31,80.03,33.78c117.6,13.8,221.62-54.72,325.66-119.3 c62.29-38.75,126.72-75.44,199.5-92.71c85.83-20.36,177.6-8.54,246.56,28.01c91.37,48.43,139.36,127.75,175.87,211.75 c10.69,24.66,18.43,52.48,38.22,76.45c27.83,33.71,68.31,65.75,108.56,88.42c45.81,25.7,86.89,34.83,118.05,44.73 c16.27,5.11,30.74,10.21,43.42,15.23c26.56,10.51,49.56,25.63,94.62,16.83c43.26-8.32,90.69-47.14,131.82-86.22 c32.7-31.18,65.72-62.97,99.82-93.9c130.7-118.31,288.17-226.84,461.57-220.54c16.85,0.62,33.76,2.36,50.57,5.37 c36.49,6.52,71.59,18.85,103.68,37.18c59.55,34.01,105.23,86.04,143.65,143.58c58.64,87.75,101.5,188.21,164.16,266.27"/><path d="M-277.02,338.73C-187.04,280.38-98.38,186.4,3.44,113.22c11.98-8.61,24.15-16.9,36.51-24.8 c92.26-58.91,207.27-96.56,311-74.01c28.42,6.15,55.55,16.65,80.95,31.9c42.57,25.57,77.07,62.99,104.33,104.86 c57.64,88.75,83.57,196.5,86.36,303.24c1.07,39.72-0.7,79.42-4.46,118.67c-13.97,145.07-53.55,287.77-74.35,432.67 c-11.61,80.89-14.83,174.73,43.8,231.67c22.18,21.55,52.91,30.61,82.42,33.63c121.16,11.99,226.06-61.62,331.81-129.96 c63.33-41.01,128.93-79.55,203.5-97.14c87.98-20.75,182.36-6.86,252.18,33.4c92.36,53.24,138.04,139.22,171.54,228.48 c9.81,26.21,16.58,55.46,36.1,80.82c26.5,34.42,66.55,67.05,107.08,88.66c46.15,24.51,87.81,30.48,119.49,36.99 c16.54,3.33,31.34,6.58,44.42,9.7c27.37,6.52,51.19,17.07,95.26,5.43c42.3-11.03,88.37-50.3,128.7-89.75 c32.09-31.49,64.52-63.49,98.1-94.59c128.63-118.87,285.73-227.33,457.96-220.68c16.75,0.65,33.56,2.43,50.28,5.48 c36.27,6.59,71.13,18.97,103.03,37.2c59.17,33.81,104.97,85.34,143.31,142.38c58.58,87.07,101,186.87,161.42,265.99"/><path d="M-275.67,349.71c93.21-54.66,183.23-148.02,285.36-221.59c12.01-8.65,24.21-17.01,36.57-24.97 c92.29-59.44,207.57-98.42,311.57-76.51c28.52,5.98,55.79,16.39,81.33,31.69c42.74,25.61,77.22,63.36,104.35,105.48 c57.43,89.41,82.6,197.55,84.84,304.76c0.87,39.85-1.1,79.68-5.06,119.04c-14.69,145.52-54.82,288.54-75.5,433.93 c-11.21,78.77-14.2,170.12,42.92,225.5c22.72,22.03,54.47,30.91,84.82,33.48c124.71,10.17,230.5-68.52,337.95-140.63 c64.36-43.28,131.13-83.66,207.51-101.57c90.13-21.14,187.11-5.18,257.8,38.78c93.35,58.06,136.71,150.68,167.21,245.21 c8.93,27.75,14.77,58.42,33.99,85.19c25.21,35.1,64.79,68.36,105.6,88.91c46.48,23.32,88.73,26.14,120.94,29.25 c16.82,1.56,31.94,2.95,45.42,4.17c28.18,2.54,52.81,8.51,95.9-5.96c41.34-13.75,86.05-53.47,125.58-93.28 c31.48-31.8,63.33-64.02,96.39-95.29c126.55-119.42,283.28-227.82,454.36-220.83c16.65,0.69,33.36,2.5,49.99,5.58 c36.05,6.66,70.67,19.09,102.39,37.22c58.79,33.61,104.71,84.64,142.97,141.17c58.52,86.38,100.5,185.52,158.69,265.7"/><path d="M-274.33,360.68c96.44-50.96,187.83-143.7,290.26-217.66c12.05-8.7,24.26-17.11,36.63-25.15 c92.32-59.97,207.88-100.28,312.14-79.01c28.62,5.81,56.02,16.13,81.71,31.48c42.91,25.66,77.38,63.72,104.36,106.1 c57.21,90.07,81.63,198.6,83.32,306.27c0.66,39.99-1.51,79.95-5.66,119.41c-15.41,145.98-56.09,289.3-76.66,435.2 c-10.81,76.64-13.58,165.51,42.05,219.34c23.27,22.52,56.02,31.21,87.22,33.32c128.26,8.35,234.95-75.41,344.09-151.3 c65.4-45.55,133.34-87.77,211.51-106.01c92.28-21.52,191.87-3.5,263.41,44.17c94.34,62.87,135.38,162.15,162.88,261.94 c8.06,29.3,12.99,61.37,31.87,89.55c23.96,35.77,63.03,69.66,104.12,89.16c46.82,22.12,89.65,21.8,122.39,21.51 c17.1-0.21,32.54-0.68,46.43-1.36c28.99-1.43,54.44-0.05,96.54-17.35c40.38-16.47,83.72-56.64,122.46-96.81 c30.86-32.11,62.14-64.55,94.68-95.98c124.48-119.97,280.84-228.31,450.75-220.97c16.55,0.72,33.16,2.57,49.69,5.68 c35.84,6.73,70.2,19.2,101.74,37.25c58.4,33.41,104.45,83.93,142.64,139.97c58.46,85.7,100,184.18,155.95,265.42"/><path d="M-272.99,371.66c99.67-47.26,192.43-139.39,295.16-213.72c12.08-8.74,24.31-17.22,36.68-25.33 C151.2,72.1,267.03,30.46,371.56,51.11c28.72,5.64,56.26,15.87,82.09,31.27c43.09,25.71,77.53,64.08,104.38,106.72 c57,90.73,80.65,199.65,81.8,307.78c0.46,40.12-1.91,80.22-6.25,119.78c-16.12,146.43-57.36,290.05-77.81,436.47 c-10.41,74.52-12.95,160.89,41.17,213.17c23.81,23,57.58,31.51,89.61,33.17c131.81,6.53,239.39-82.31,350.23-161.96 c66.44-47.81,135.54-91.87,215.52-110.44c94.43-21.91,196.64-1.83,269.03,49.56c95.34,67.68,134.06,173.62,158.56,278.66 c7.18,30.84,11.26,64.3,29.76,93.92c22.75,36.43,61.27,70.97,102.64,89.4c47.15,20.93,90.57,17.46,123.83,13.76 c17.38-1.99,33.14-4.3,47.43-6.89c29.8-5.4,56.06-8.61,97.18-28.75c39.43-19.18,81.4-59.8,119.35-100.34 c30.25-32.42,60.95-65.08,92.96-96.67c122.4-120.52,278.39-228.8,447.15-221.11c16.45,0.75,32.96,2.64,49.4,5.78 c35.62,6.8,69.74,19.32,101.1,37.27c58.02,33.21,104.18,83.23,142.3,138.77c58.4,85.01,99.49,182.84,153.21,265.14"/><path d="M-271.64,382.63c102.9-43.57,197.02-135.07,300.05-209.79c12.11-8.78,24.36-17.32,36.74-25.5 c92.38-61.04,208.48-104.01,313.28-84c28.82,5.48,56.5,15.6,82.46,31.06c43.26,25.75,77.68,64.45,104.39,107.34 c56.78,91.39,79.68,200.7,80.28,309.29c0.25,40.25-2.32,80.49-6.85,120.15c-16.84,146.89-58.65,290.81-78.97,437.73 c-10.01,72.4-12.32,156.28,40.3,207c24.36,23.48,59.14,31.81,92.01,33.02c135.37,4.72,243.83-89.21,356.37-172.63 c67.48-50.08,137.75-95.98,219.52-114.87c96.57-22.3,201.41-0.15,274.65,54.95c96.35,72.49,132.73,185.08,154.23,295.39 c6.3,32.39,9.57,67.22,27.64,98.29c21.58,37.09,59.51,72.27,101.15,89.65c47.49,19.74,91.49,13.12,125.28,6.02 c17.66-3.76,33.74-7.92,48.44-12.42c30.61-9.37,57.69-17.17,97.82-40.14c38.47-21.9,79.08-62.97,116.23-103.86 c29.64-32.73,59.75-65.61,91.25-97.36c120.33-121.08,275.95-229.29,443.54-221.26c16.35,0.79,32.75,2.71,49.11,5.89 c35.4,6.87,69.28,19.44,100.45,37.3c57.64,33.02,103.92,82.52,141.97,137.56c58.34,84.33,98.99,181.49,150.48,264.85"/><path d="M-270.3,393.61c106.14-39.87,201.62-130.76,304.95-205.86c12.15-8.83,24.41-17.42,36.79-25.68 c92.41-61.57,208.78-105.87,313.85-86.5c28.92,5.31,56.73,15.34,82.84,30.84c43.44,25.8,77.84,64.81,104.41,107.96 c56.57,92.05,78.7,201.75,78.76,310.8c0.05,40.39-2.72,80.75-7.45,120.52c-17.56,147.34-59.94,291.57-80.12,439 c-9.62,70.27-11.69,151.66,39.42,200.84c24.91,23.96,60.69,32.1,94.41,32.87c138.92,2.9,248.27-96.1,362.52-183.29 c68.51-52.35,139.95-100.09,223.53-119.3c98.72-22.69,206.18,1.52,280.27,60.34c97.36,77.29,131.4,196.55,149.9,312.12 c5.42,33.94,7.91,70.13,25.53,102.66c20.45,37.76,57.75,73.58,99.67,89.9c47.82,18.55,92.41,8.77,126.73-1.72 c17.93-5.53,34.36-11.52,49.44-17.95c31.46-13.28,59.31-25.73,98.46-51.54c37.51-24.61,76.76-66.14,113.11-107.39 c29.03-33.04,58.56-66.14,89.54-98.06c118.25-121.63,273.51-229.78,439.94-221.4c16.25,0.82,32.55,2.78,48.81,5.99 c35.19,6.94,68.81,19.56,99.81,37.32c57.26,32.82,103.66,81.82,141.63,136.36c58.28,83.64,98.49,180.15,147.74,264.57"/><path d="M-268.96,404.59c109.37-36.17,206.22-126.44,309.85-201.93c12.18-8.87,24.46-17.53,36.85-25.85 c92.44-62.1,209.08-107.73,314.42-89c29.02,5.14,56.97,15.08,83.22,30.63c43.61,25.85,77.99,65.17,104.43,108.58 c56.36,92.72,77.73,202.8,77.24,312.32c-0.16,40.52-3.12,81.02-8.04,120.89c-18.28,147.8-61.24,292.33-81.28,440.27 c-9.23,68.15-11.06,147.04,38.55,194.67c25.46,24.44,62.25,32.4,96.81,32.72c142.47,1.08,252.71-103,368.66-193.96 c69.55-54.61,142.16-104.2,227.54-123.74c100.87-23.08,210.95,3.19,285.89,65.72c98.37,82.1,130.08,208.02,145.57,328.85 c4.54,35.48,6.3,73.03,23.41,107.03c19.35,38.42,55.99,74.88,98.19,90.14c48.16,17.35,93.34,4.43,128.18-9.47 c18.21-7.31,34.97-15.14,50.45-23.48c32.28-17.26,60.94-34.29,99.09-62.93c36.55-27.33,74.43-69.3,109.99-110.92 c28.42-33.35,57.37-66.67,87.82-98.75c116.18-122.18,271.06-230.27,436.33-221.55c16.15,0.86,32.35,2.85,48.52,6.09 c34.97,7.01,68.35,19.67,99.16,37.35c56.87,32.62,103.4,81.11,141.29,135.16c58.22,82.95,97.99,178.8,145,264.28"/><path d="M-267.61,415.56c112.6-32.48,210.82-122.12,314.75-198c12.21-8.91,24.51-17.63,36.91-26.03 c92.47-62.64,209.38-109.59,314.98-91.49c29.12,4.97,57.21,14.82,83.6,30.42c43.78,25.89,78.15,65.54,104.44,109.2 c56.14,93.38,76.75,203.85,75.72,313.83c-0.36,40.65-3.53,81.29-8.64,121.26c-18.99,148.25-62.55,293.08-82.43,441.53 c-8.84,66.02-10.43,142.42,37.68,188.5c26.01,24.92,63.81,32.7,99.2,32.57c146.03-0.73,257.15-109.9,374.8-204.62 c70.59-56.88,144.36-108.31,231.54-128.17c103.02-23.47,215.73,4.86,291.5,71.11c99.39,86.9,128.75,219.48,141.25,345.58 c3.66,37.03,4.73,75.94,21.3,111.39c18.28,39.1,54.23,76.18,96.71,90.39c48.49,16.16,94.26,0.09,129.62-17.21 c18.49-9.08,35.58-18.77,51.45-29.01c33.11-21.24,62.56-42.85,99.73-74.33c35.6-30.05,72.11-72.47,106.87-114.45 c27.81-33.66,56.18-67.2,86.11-99.44c114.1-122.73,268.62-230.76,432.73-221.69c16.05,0.89,32.15,2.92,48.23,6.2 c34.76,7.08,67.89,19.79,98.52,37.37c56.49,32.42,103.13,80.41,140.96,133.95c58.16,82.27,97.49,177.46,142.27,264"/><path d="M-266.27,426.54c115.83-28.78,215.42-117.81,319.65-194.07c12.24-8.96,24.56-17.73,36.96-26.2 c92.5-63.17,209.69-111.45,315.55-93.99c29.23,4.8,57.44,14.56,83.98,30.21c43.96,25.94,78.3,65.9,104.46,109.82 c55.93,94.04,75.78,204.9,74.2,315.34c-0.57,40.79-3.93,81.55-9.24,121.63c-19.71,148.71-63.86,293.84-83.59,442.8 c-8.46,63.9-9.79,137.79,36.8,182.34c26.56,25.4,65.37,33,101.6,32.42c149.58-2.55,261.59-116.8,380.94-215.29 c71.63-59.15,146.57-112.42,235.55-132.6c105.17-23.86,220.62,6.41,297.12,76.5c100.56,91.55,127.42,230.95,136.92,362.3 c2.78,38.57,3.19,78.84,19.18,115.76c17.24,39.79,52.47,77.49,95.23,90.64c48.83,14.97,95.18-4.25,131.07-24.95 c18.77-10.85,36.18-22.4,52.46-34.54c33.93-25.22,64.19-51.41,100.37-85.72c34.64-32.76,69.79-75.64,103.75-117.98 c27.2-33.97,54.99-67.73,84.39-100.13c112.03-123.29,266.17-231.26,429.12-221.83c15.95,0.92,31.95,2.99,47.94,6.3 c34.54,7.15,67.42,19.91,97.88,37.4c56.11,32.22,102.87,79.71,140.62,132.75c58.1,81.58,96.98,176.12,139.53,263.72"/><path d="M-264.93,437.51c119.06-25.08,220.01-113.49,324.55-190.14c12.28-9,24.61-17.84,37.02-26.38 c92.53-63.7,209.99-113.31,316.12-96.49c29.33,4.63,57.68,14.3,84.35,30c44.13,25.98,78.46,66.26,104.47,110.44 c55.71,94.7,74.81,205.95,72.68,316.85c-0.77,40.92-4.34,81.82-9.84,122C644,852.97,599,998.37,579.69,1147.87 c-8.18,61.76-9.07,133.08,35.93,176.17c27.17,25.82,66.92,33.3,104,32.27c153.13-4.37,266.03-123.69,387.09-225.95 c72.67-61.41,148.77-116.52,239.55-137.04c107.32-24.25,225.38,8.11,302.74,81.89c101.55,96.4,126.1,242.42,132.59,379.03 c1.9,40.12,1.7,81.75,17.07,120.13c16.22,40.5,50.71,78.79,93.74,90.88c49.16,13.78,96.1-8.59,132.52-32.69 c19.05-12.63,36.79-26.03,53.46-40.07c34.76-29.2,65.82-59.97,101.01-97.11c33.68-35.48,67.47-78.8,100.64-121.51 c26.59-34.28,53.79-68.26,82.68-100.83c109.95-123.84,263.73-231.75,425.52-221.98c15.85,0.96,31.75,3.06,47.64,6.4 c34.32,7.22,66.96,20.03,97.23,37.42c55.72,32.02,102.61,79,140.28,131.54c58.04,80.9,96.48,174.77,136.8,263.43"/><path d="M-263.58,448.49c122.3-21.39,224.61-109.18,329.45-186.21c12.31-9.05,24.66-17.94,37.08-26.56 c92.56-64.23,210.29-115.17,316.69-98.99c29.43,4.47,57.91,14.04,84.73,29.79c44.31,26.03,78.61,66.63,104.49,111.07 c55.5,95.36,73.83,207,71.16,318.36c-0.97,41.05-4.74,82.09-10.43,122.37c-21.15,149.62-66.71,295.32-85.9,445.33 c-7.77,59.64-8.46,128.48,35.05,170c27.71,26.3,68.48,33.6,106.39,32.12c156.68-6.19,270.47-130.59,393.23-236.62 c73.7-63.68,150.98-120.63,243.56-141.47c109.46-24.63,230.14,9.81,308.36,87.28c102.54,101.24,124.77,253.88,128.26,395.76 c1.02,41.66,0.23,84.66,14.95,124.5c15.23,41.22,48.96,80.1,92.26,91.13c49.5,12.58,97.02-12.93,133.96-40.44 c19.32-14.4,37.4-29.66,54.47-45.6c35.58-33.18,67.44-68.53,101.65-108.51c32.72-38.2,65.14-81.97,97.52-125.04 c25.98-34.59,52.6-68.79,80.97-101.52c107.88-124.39,261.29-232.24,421.92-222.12c15.75,0.99,31.55,3.13,47.35,6.5 c34.11,7.29,66.5,20.14,96.59,37.45c55.34,31.82,102.34,78.3,139.95,130.34c57.98,80.21,95.98,173.43,134.06,263.15"/><path d="M-262.24,459.46C-136.71,441.77-33.03,354.6,72.1,277.19c12.34-9.09,24.71-18.04,37.13-26.73 c92.59-64.76,210.59-117.03,317.26-101.48c29.53,4.3,58.15,13.78,85.11,29.58c44.48,26.08,78.76,66.99,104.51,111.69 c55.28,96.02,72.86,208.05,69.64,319.87c-1.18,41.19-5.15,82.35-11.03,122.74c-21.87,150.07-67.98,296.08-87.05,446.6 c-7.36,57.52-7.85,123.88,34.18,163.84c28.26,26.79,70.04,33.9,108.79,31.97c160.24-8,274.91-137.49,399.37-247.28 c74.74-65.95,153.18-124.74,247.56-145.9c111.61-25.02,234.9,11.51,313.98,92.66c103.53,106.09,123.44,265.35,123.94,412.49 c0.14,43.21-1.2,87.57,12.84,128.86c14.27,41.97,47.2,81.4,90.78,91.38c49.83,11.39,97.94-17.28,135.41-48.18 c19.6-16.17,38.01-33.29,55.47-51.13c36.4-37.16,69.07-77.09,102.29-119.9c31.77-40.91,62.82-85.14,94.4-128.56 c25.37-34.9,51.41-69.32,79.25-102.21c105.8-124.95,258.84-232.73,418.31-222.26c15.65,1.03,31.35,3.2,47.06,6.61 c33.89,7.36,66.04,20.26,95.94,37.47c54.96,31.63,102.08,77.59,139.61,129.14c57.92,79.53,95.48,172.09,131.32,262.86"/><path d="M-260.9,470.44C-117.02,454.8-2.75,348.57,115.53,265.18s278.4-147.69,403.31-74.61 c44.65,26.12,78.92,67.35,104.52,112.31c75.33,132.26,79.08,293.97,56.5,444.5c-22.58,150.53-69.25,296.84-88.21,447.87 c-6.95,55.4-7.23,119.28,33.3,157.67c28.8,27.28,71.59,34.2,111.19,31.82c262.17-15.72,400.76-351.03,657.08-408.28 c113.76-25.41,239.66,13.21,319.59,98.05c104.52,110.93,122.11,276.82,119.61,429.22c-0.74,44.75-2.6,90.5,10.72,133.23 s45.44,82.71,89.3,91.62c50.17,10.2,98.86-21.62,136.86-55.92c132.72-119.82,214.31-285.13,328.23-422.96 c113.92-137.82,286.86-254.2,461.47-215.7c95.5,21.06,176.71,86.59,234.57,165.43c57.86,78.84,94.97,170.74,128.59,262.58"/><path d="M-259.99,480.64c141.38-14.95,254.25-117.6,370.93-198.57c116.48-80.92,273.13-143.74,395.91-74.47 c43.95,24.74,77.92,63.99,103.57,106.84c75.46,126.07,82.14,280.55,63.56,424.71c-9.12,70.83-23.81,140.78-38.16,210.93 c-14.89,72.63-29.41,145.5-37.08,219.73c-5.53,53.52-4.67,115.31,35.38,152.68c28.47,26.56,70.36,33.6,109.14,31.76 c105.32-5.02,190.35-61.37,270.9-129.37c95.17-80.24,183.94-176.91,293.66-225.09c23.82-10.48,48.63-18.67,74.7-23.9 c109.97-22.05,231.7,17.45,309.34,101.36c90.02,97.3,114.44,236.1,118.05,370.52c0.46,17.16,0.59,34.25,0.48,51.16 c-0.28,43.89-1.72,88.74,12,130.36c13.88,42.12,46.61,80.68,90.36,88.9c14.54,2.74,28.94,2.01,42.98-1.25 c34.26-7.97,66.37-30.93,93.25-55.16c16.87-15.2,32.92-31.14,48.34-47.64c105.62-112.95,182.01-251.95,282.37-370.3 c54.23-63.93,121.15-123.12,194.96-164.14c82.73-46,174.63-69.04,266.39-48.61c25.13,5.6,49.25,14.34,72.17,25.71 c63.73,31.59,118.24,82.58,159.24,141.23c23.28,33.31,42.78,69.04,60.57,105.7c13.8,28.45,26.39,57.66,39.07,86.73 c12.66,29,25.61,57.82,38.52,84.57"/><path d="M-259.08,490.83C-120.19,476.57-8.73,377.5,106.34,298.94c114.68-78.46,267.87-139.79,388.5-74.33 c43.26,23.35,76.93,60.63,102.62,101.38c75.6,119.87,85.2,267.12,70.63,404.92c-7.14,67.7-19.61,134.67-31.74,201.99 c-12.61,69.7-24.84,139.82-30.54,211.45c-4.11,51.65-2.11,111.34,37.46,147.7c28.13,25.84,69.12,33,107.08,31.69 c103.08-3.59,186.38-56.06,264.86-119.29c92.75-74.55,178.5-164.49,284.46-207.96c23-9.48,46.95-16.76,72.12-21.2 c106.18-18.69,223.75,21.69,299.08,104.67c87.36,96.21,111.85,232.24,116.51,363.99c0.6,16.82,0.87,33.57,0.94,50.16 c0.17,43.02-0.84,86.98,13.27,127.49c14.45,41.52,47.79,78.65,91.41,86.18c14.48,2.52,28.82,1.64,42.77-1.71 c34.11-8.21,66.01-31.06,92.84-55.2c16.82-15.14,32.84-31.01,48.26-47.4c105.63-112.27,183.62-249.08,284.93-365.51 c54.79-62.92,121.85-121.13,195.61-161.72c82.52-45.45,174.46-68.59,265.61-48.08c25.02,5.63,49.01,14.44,71.77,25.97 c63.22,31.99,116.94,83.28,156.48,142.48c23.86,35.73,43.37,74.23,61.59,113.4c14.14,30.4,27.15,61.6,41.16,92.15 c13.99,30.48,29.37,60.24,44.98,85.88"/><path d="M-258.18,501.03c136.4-13.58,246.46-109.07,359.92-185.21c112.87-75.99,262.61-135.84,381.09-74.19 c42.56,21.96,75.93,57.27,101.67,95.91c75.73,113.68,88.26,253.69,77.69,385.13c-5.16,64.57-15.41,128.56-25.32,193.05 c-10.34,66.77-20.27,134.14-24,203.18c-2.69,49.78,0.45,107.37,39.53,142.71c27.8,25.13,67.89,32.41,105.03,31.62 c100.84-2.16,182.42-50.74,258.82-109.2c90.34-68.85,173.06-152.07,275.25-190.83c22.18-8.47,45.28-14.84,69.55-18.49 c102.39-15.32,215.79,25.93,288.83,107.98c84.69,95.13,109.27,228.37,114.97,357.46c0.73,16.48,1.16,32.9,1.4,49.15 c0.63,42.16,0.06,85.22,14.54,124.61c15.03,40.92,48.96,76.63,92.47,83.46c14.42,2.29,28.69,1.27,42.56-2.16 c33.96-8.45,65.65-31.18,92.43-55.24c16.78-15.07,32.76-30.88,48.18-47.16c105.64-111.59,185.23-246.2,287.49-360.72 c55.35-61.91,122.56-119.14,196.27-159.3c82.32-44.91,174.28-68.14,264.84-47.56c24.9,5.67,48.77,14.54,71.37,26.24 c62.72,32.4,115.55,84.06,153.72,143.73c24.42,38.18,43.95,79.42,62.61,121.09c14.48,32.36,27.91,65.54,43.25,97.57 c15.32,31.97,33.13,62.66,51.44,87.18"/><path d="M-257.27,511.23c133.91-12.89,242.56-104.8,354.42-178.53c111.07-73.52,257.22-131.63,373.68-74.06 c41.81,20.67,74.94,53.92,100.72,90.45c75.86,107.49,91.32,240.26,84.75,365.34c-3.18,61.44-11.22,122.46-18.9,184.11 c-8.06,63.84-15.7,128.47-17.46,194.91c-1.27,47.91,3.01,103.39,41.61,137.72c27.46,24.41,66.65,31.81,102.98,31.55 c98.6-0.73,178.45-45.43,252.79-99.12c87.93-63.16,167.61-139.65,266.04-173.71c21.36-7.47,43.6-12.93,66.97-15.79 c98.59-11.96,207.84,30.17,278.57,111.28c82.02,94.05,106.69,224.51,113.44,350.93c0.86,16.14,1.45,32.23,1.86,48.14 c1.08,41.29,0.97,83.46,15.81,121.74c15.62,40.32,50.14,74.6,93.53,80.75c14.36,2.06,28.56,0.9,42.35-2.62 c33.82-8.68,65.29-31.31,92.02-55.28c16.73-15.01,32.69-30.74,48.09-46.92c105.64-110.91,186.83-243.33,290.04-355.94 c55.91-60.9,123.27-117.15,196.92-156.87c82.11-44.36,174.1-67.68,264.07-47.03c24.79,5.7,48.53,14.65,70.96,26.5 c62.21,32.8,114.08,84.91,150.97,144.97c24.96,40.66,44.54,84.6,63.63,128.79c14.83,34.31,28.67,69.48,45.34,102.99 c16.65,33.45,36.89,65.08,57.91,88.48"/><path d="M-256.36,521.42C-124.95,509.21-17.7,420.89,92.55,349.57c109.26-71.06,251.93-127.62,366.27-73.92 c41.1,19.3,73.95,50.56,99.76,84.99c75.99,101.29,94.37,226.84,91.82,345.55c-1.2,58.31-7.02,116.35-12.48,175.17 c-5.78,60.9-11.12,122.79-10.91,186.63c0.15,46.03,5.57,99.42,43.68,132.74c27.13,23.69,65.42,31.21,100.93,31.49 c96.36,0.7,174.48-40.11,246.75-89.03c85.52-57.47,162.23-127.02,256.83-156.58c20.55-6.42,41.92-11.01,64.39-13.08 c94.8-8.6,199.89,34.41,268.31,114.59c79.35,92.97,104.1,220.64,111.9,344.4c1,15.8,1.73,31.56,2.32,47.13 c1.54,40.43,1.9,81.7,17.08,118.87c16.22,39.73,51.31,72.57,94.58,78.03c14.3,1.84,28.43,0.54,42.14-3.08 c33.67-8.92,64.93-31.44,91.61-55.32c16.69-14.94,32.61-30.61,48.01-46.69c105.65-110.23,188.44-240.46,292.6-351.15 c56.47-59.9,123.97-115.16,197.57-154.45c81.91-43.81,173.93-67.23,263.3-46.51c24.67,5.73,48.29,14.75,70.56,26.76 c61.7,33.21,112.54,85.81,148.21,146.22c25.48,43.16,45.12,89.79,64.65,136.48c15.17,36.27,29.43,73.42,47.43,108.42 c17.98,34.94,40.65,67.5,64.37,89.79"/><path d="M-255.46,531.62c128.92-11.52,234.77-96.27,343.41-165.17c107.46-68.59,246.65-123.61,358.86-73.78 c40.4,17.94,72.95,47.2,98.81,79.52c76.12,95.1,97.43,213.41,98.88,325.76c0.78,55.19-2.83,110.24-6.06,166.23 c-3.51,57.97-6.55,117.12-4.37,178.36c1.57,44.16,8.13,95.45,45.76,127.75c26.8,22.97,64.19,30.61,98.88,31.42 c94.12,2.12,170.42-34.95,240.71-78.95c82.99-51.95,156.8-114.55,247.63-139.45c19.73-5.41,40.25-9.1,61.81-10.37 c91.01-5.23,191.93,38.65,258.06,117.9c76.68,91.89,101.52,216.78,110.36,337.87c1.13,15.46,2.02,30.88,2.78,46.13 c1.99,39.56,2.84,79.93,18.35,115.99c16.83,39.13,52.49,70.55,95.64,75.31c14.24,1.61,28.31,0.17,41.93-3.53 c33.52-9.16,64.57-31.57,91.19-55.35c16.64-14.87,32.53-30.47,47.93-46.45c105.65-109.56,190.05-237.58,295.16-346.36 c57.03-58.89,124.68-113.17,198.22-152.03c81.71-43.27,173.75-66.77,262.52-45.98c24.56,5.77,48.05,14.85,70.16,27.03 c61.2,33.61,110.94,86.77,145.45,147.47c25.97,45.69,45.71,94.98,65.68,144.18c15.51,38.22,30.19,77.36,49.52,113.84 c19.31,36.42,44.41,69.92,70.83,91.09"/><path d="M-254.55,541.82c126.43-10.84,230.87-92,337.9-158.49c105.65-66.12,241.38-119.6,351.46-73.64 c39.69,16.57,71.96,43.84,97.86,74.06c76.25,88.91,100.49,199.98,105.95,305.97c2.75,52.06,1.37,104.13,0.36,157.28 c-1.23,55.04-1.98,111.44,2.17,170.09c2.99,42.29,10.69,91.48,47.83,122.77c26.46,22.26,62.95,30.01,96.82,31.35 c91.88,3.55,166.45-29.67,234.67-68.87c80.57-46.3,151.35-102.09,238.42-122.32c18.91-4.39,38.57-7.18,59.24-7.67 c87.22-1.87,183.98,42.89,247.8,121.21c74.01,90.81,98.94,212.91,108.82,331.34c1.26,15.12,2.3,30.21,3.24,45.12 c2.45,38.7,3.79,78.17,19.62,113.12c17.46,38.54,53.66,68.52,96.7,72.59c14.18,1.39,28.18-0.2,41.72-3.99 c33.37-9.4,64.21-31.69,90.78-55.39c16.6-14.81,32.45-30.34,47.85-46.21c105.66-108.88,191.65-234.71,297.72-341.58 c57.59-57.88,125.39-111.18,198.87-149.6c81.5-42.72,173.57-66.32,261.75-45.46c24.45,5.8,47.81,14.95,69.76,27.29 c60.69,34.01,109.28,87.76,142.69,148.72c26.44,48.24,46.29,100.17,66.7,151.87c15.85,40.18,30.95,81.31,51.61,119.26 c20.64,37.9,48.17,72.34,77.29,92.4"/><path d="M-253.64,552.01c123.94-10.15,226.98-87.73,332.4-151.81c103.85-63.65,236.11-115.6,344.05-73.5 c38.99,15.2,70.96,40.48,96.91,68.6C596.09,478,623.26,581.85,632.72,681.47c4.73,48.93,5.57,98.02,6.78,148.34 c1.05,52.11,2.59,105.76,8.71,161.81c4.42,40.42,13.25,87.51,49.91,117.78c26.13,21.54,61.72,29.42,94.77,31.29 c89.64,4.98,162.47-24.38,228.64-58.78c78.15-40.64,145.91-89.62,229.21-105.19c18.08-3.38,36.89-5.27,56.66-4.96 c83.43,1.49,176.02,47.13,237.55,124.52c71.34,89.73,96.35,209.05,107.28,324.81c1.4,14.78,2.59,29.54,3.7,44.11 c2.9,37.83,4.76,76.41,20.89,110.25c18.09,37.95,54.84,66.49,97.75,69.87c14.12,1.16,28.05-0.57,41.51-4.44 c33.22-9.64,63.86-31.82,90.37-55.43c16.55-14.74,32.38-30.21,47.77-45.97c105.66-108.2,193.26-231.84,300.28-336.79 c58.15-56.88,126.09-109.19,199.52-147.18c81.3-42.18,173.4-65.87,260.98-44.93c24.33,5.84,47.57,15.05,69.36,27.55 c60.19,34.42,107.57,88.79,139.93,149.96c26.87,50.81,46.87,105.35,67.72,159.57c16.19,42.13,31.71,85.25,53.7,124.68 c21.97,39.39,51.93,74.76,83.76,93.7"/><path d="M-252.74,562.21c121.44-9.47,223.21-83.25,326.9-145.13C176.33,356.1,305,305.48,410.8,343.71 c38.29,13.84,69.97,37.12,95.96,63.13c76.51,76.52,106.61,173.13,120.07,266.39c6.71,45.8,9.88,91.91,13.2,139.4 c3.44,49.17,7.16,100.09,15.25,153.54c5.84,38.54,15.81,83.54,51.98,112.79c25.79,20.82,60.48,28.82,92.72,31.22 c87.4,6.41,158.51-19.1,222.6-48.7c75.74-34.98,140.45-77.15,220.01-88.06c17.26-2.37,35.22-3.35,54.08-2.26 c79.64,4.86,168.07,51.37,227.29,127.83c68.67,88.65,93.77,205.18,105.74,318.28c1.53,14.44,2.87,28.86,4.16,43.11 c3.35,36.97,5.74,74.64,22.16,107.37c18.74,37.36,56.02,64.47,98.81,67.15c14.05,0.93,27.92-0.94,41.3-4.9 c33.08-9.88,63.5-31.95,89.96-55.47c16.51-14.68,32.3-30.07,47.69-45.74c105.67-107.52,194.87-228.96,302.84-332 c58.71-55.87,126.8-107.2,200.17-144.76c81.1-41.63,173.22-65.41,260.21-44.41c24.22,5.87,47.33,15.15,68.96,27.82 c59.68,34.82,105.82,89.84,137.17,151.21c27.28,53.4,47.46,110.54,68.74,167.26c16.53,44.09,32.47,89.19,55.79,130.11 c23.3,40.87,55.69,77.18,90.22,95.01"/><path d="M-251.83,572.41c118.95-8.78,219.32-78.97,321.39-138.45c100.37-58.49,225.58-107.6,329.23-73.23 c37.59,12.47,68.97,33.76,95.01,57.67c76.64,70.33,109.67,159.7,127.14,246.6c8.69,42.68,14.08,85.79,19.62,130.46 c5.73,46.23,11.73,94.41,21.8,145.27c7.26,36.67,18.37,79.57,54.06,107.81c25.46,20.11,59.25,28.22,90.67,31.15 c85.16,7.84,154.54-13.81,216.56-38.62c73.33-29.33,134.99-64.69,210.8-70.93c16.44-1.35,33.54-1.44,51.5,0.45 c75.84,8.22,160.11,55.61,217.03,131.14c66,87.57,91.19,201.32,104.2,311.75c1.67,14.1,3.16,28.19,4.62,42.1 c3.81,36.1,6.73,72.87,23.43,104.5c19.4,36.76,57.19,62.44,99.87,64.43c13.99,0.71,27.8-1.31,41.09-5.36 c32.93-10.11,63.14-32.07,89.54-55.51c16.46-14.61,32.22-29.94,47.6-45.5c105.67-106.84,196.47-226.09,305.4-327.22 c59.27-54.86,127.51-105.21,200.82-142.33c80.89-41.09,173.05-64.96,259.44-43.88c24.1,5.9,47.09,15.25,68.56,28.08 c59.18,35.23,104.02,90.91,134.41,152.46c27.65,56.01,48.04,115.73,69.76,174.96c16.87,46.04,33.23,93.13,57.88,135.53 c24.63,42.36,59.45,79.6,96.68,96.31"/><path d="M-250.92,582.6c116.46-8.09,215.43-74.69,315.89-131.77c98.57-56.01,220.32-103.61,321.82-73.09 c36.89,11.09,67.98,30.4,94.05,52.2c76.78,64.13,112.73,146.27,134.2,226.81c10.67,39.55,18.29,79.67,26.04,121.52 c8.02,43.29,16.3,88.74,28.34,136.99c8.68,34.8,20.93,75.6,56.13,102.82c25.13,19.39,58.01,27.62,88.62,31.08 c82.92,9.27,150.58-8.53,210.52-28.53c70.93-23.67,129.52-52.23,201.59-53.8c15.61-0.34,31.86,0.48,48.93,3.16 c72.05,11.58,152.16,59.85,206.78,134.44c63.33,86.49,88.6,197.45,102.66,305.22c1.8,13.77,3.45,27.52,5.08,41.09 c4.26,35.24,7.75,71.09,24.7,101.63c20.08,36.17,58.37,60.33,100.92,61.71c13.94,0.45,27.67-1.68,40.87-5.81 c32.78-10.35,62.78-32.2,89.13-55.54c16.41-14.54,32.14-29.81,47.52-45.26c105.68-106.16,198.08-223.22,307.96-322.43 c59.83-53.85,128.21-103.22,201.48-139.91c80.69-40.54,172.87-64.5,258.66-43.35c23.99,5.94,46.85,15.36,68.15,28.34 c58.67,35.63,102.19,92,131.65,153.7c27.99,58.64,48.63,120.91,70.78,182.65c17.22,48,33.99,97.07,59.97,140.95 c25.96,43.84,63.21,82.03,103.15,97.61"/><path d="M-250.02,592.8c113.97-7.41,211.54-70.41,310.39-125.09c96.77-53.54,215.07-99.63,314.41-72.95 c36.2,9.72,66.99,27.04,93.1,46.74c76.91,57.94,115.78,132.85,141.27,207.02c12.65,36.42,22.49,73.55,32.46,112.58 c10.3,40.34,20.88,83.06,34.88,128.72c10.1,32.93,23.49,71.63,58.21,97.83c24.79,18.67,56.78,27.03,86.56,31.02 c80.68,10.7,146.63-3.24,204.49-18.45c68.53-18.01,124.05-39.77,192.39-36.68c14.78,0.67,30.19,2.36,46.35,5.86 c68.29,14.81,144.2,64.09,196.52,137.75c60.66,85.41,86.02,193.59,101.12,298.69c1.93,13.43,3.73,26.85,5.55,40.09 c4.72,34.37,8.77,69.31,25.97,98.75c20.77,35.56,59.54,58.3,101.98,58.99c13.87,0.23,27.54-2.04,40.66-6.27 c32.63-10.59,62.42-32.33,88.72-55.58c16.37-14.48,32.06-29.67,47.44-45.02c105.68-105.48,199.69-220.35,310.52-317.64 c60.39-52.85,128.92-101.23,202.13-137.49c80.49-40,172.69-64.05,257.89-42.83c23.88,5.97,46.61,15.46,67.75,28.61 c58.16,36.03,100.33,93.11,128.89,154.95c28.3,61.28,49.21,126.1,71.8,190.34c17.56,49.95,34.75,101.01,62.06,146.37 c27.3,45.32,66.97,84.45,109.61,98.92"/><path d="M-249.11,603c111.48-6.72,207.64-66.13,304.88-118.41c94.97-51.06,209.83-95.65,307.01-72.82 c35.51,8.34,65.99,23.68,92.15,41.28c77.04,51.75,118.84,119.42,148.33,187.23c14.62,33.29,26.69,67.43,38.88,103.64 c12.58,37.4,25.45,77.38,41.42,120.45c11.52,31.05,26.06,67.66,60.28,92.85c24.46,17.96,55.54,26.43,84.51,30.95 c78.44,12.13,142.69,2.05,198.45-8.37c66.15-12.35,118.56-27.32,183.18-19.55c13.95,1.68,28.52,4.27,43.77,8.57 c64.51,18.17,136.25,68.33,186.26,141.06c57.99,84.33,83.44,189.72,99.58,292.16c2.07,13.09,4.02,26.17,6.01,39.08 c5.17,33.51,9.82,67.53,27.24,95.88c21.48,34.95,60.72,56.09,103.04,56.27c13.81,0.06,27.41-2.41,40.45-6.72 c32.48-10.83,62.06-32.46,88.31-55.62c16.32-14.41,31.99-29.54,47.36-44.79c105.69-104.8,201.29-217.47,313.08-312.86 c60.95-51.84,129.63-99.24,202.78-135.07c80.28-39.45,172.52-63.59,257.12-42.3c23.76,6,46.37,15.56,67.35,28.87 c57.66,36.44,98.43,94.23,126.13,156.2c28.57,63.93,49.8,131.29,72.82,198.04c17.9,51.91,35.51,104.95,64.15,151.79 c28.63,46.81,70.73,86.87,116.07,100.22"/><path d="M-248.21,613.19c108.98-6.04,203.75-61.86,299.38-111.73c93.16-48.59,204.59-91.68,299.6-72.68 c34.81,6.96,65,20.32,91.2,35.81c77.17,45.55,121.78,106.06,155.39,167.44c16.54,30.2,30.89,61.31,45.3,94.7 c14.86,34.45,30.02,71.71,47.96,112.18c12.94,29.18,28.62,63.69,62.36,87.86c24.12,17.24,54.31,25.83,82.46,30.88 c76.2,13.56,138.75,7.34,192.41,1.72c63.77-6.68,113.07-14.88,173.97-2.42c13.12,2.69,26.84,6.19,41.19,11.27 c60.73,21.53,128.29,72.57,176.01,144.37c55.33,83.25,80.85,185.86,98.05,285.64c2.2,12.75,4.3,25.5,6.47,38.07 c5.63,32.64,10.87,65.73,28.51,93.01c22.2,34.34,61.89,54.24,104.09,53.56c13.75-0.22,27.29-2.78,40.24-7.18 c32.34-11.07,61.71-32.58,87.9-55.66c16.28-14.35,31.91-29.4,47.28-44.55c105.69-104.12,202.9-214.6,315.64-308.07 c61.51-50.83,130.33-97.25,203.43-132.64c80.08-38.91,172.34-63.14,256.35-41.78c23.65,6.04,46.13,15.66,66.95,29.13 c57.15,36.84,96.51,95.36,123.37,157.45c28.81,66.6,50.38,136.47,73.85,205.73c18.24,53.86,36.27,108.89,66.24,157.22 c29.96,48.29,74.49,89.29,122.53,101.53"/><path d="M-247.3,623.39c106.49-5.35,199.85-57.59,293.87-105.05c91.36-46.12,199.35-87.73,292.19-72.54 c34.12,5.58,64,16.96,90.25,30.35c77.3,39.36,124.84,92.65,162.46,147.65c18.52,27.08,35.09,55.18,51.72,85.76 c17.14,31.5,34.59,66.03,54.51,103.9c14.36,27.31,31.18,59.72,64.43,82.88c23.79,16.52,53.07,25.23,80.41,30.82 c73.96,14.98,134.82,12.64,186.37,11.8c61.4-1.01,107.58-2.46,164.77,14.71c12.29,3.69,25.17,8.1,38.62,13.98 c56.95,24.89,120.34,76.81,165.75,147.68c52.66,82.17,78.27,181.99,96.51,279.11c2.33,12.41,4.59,24.83,6.93,37.07 c6.08,31.78,11.94,63.93,29.78,90.13c22.95,33.71,63.06,52.22,105.15,50.84c13.69-0.45,27.16-3.15,40.03-7.63 c32.19-11.3,61.35-32.71,87.48-55.7c16.23-14.28,31.83-29.27,47.19-44.31c105.7-103.44,204.51-211.73,318.2-303.28 c62.07-49.83,131.04-95.26,204.08-130.22c79.88-38.36,172.16-62.69,255.58-41.25c23.54,6.07,45.89,15.76,66.55,29.4 c56.65,37.25,94.56,96.49,120.61,158.69c29.01,69.28,50.97,141.66,74.87,213.43c18.58,55.82,37.03,112.84,68.33,162.64 c31.29,49.77,78.25,91.71,129,102.83"/><path d="M-246.39,633.59c104-4.67,195.95-53.32,288.37-98.37c89.55-43.65,194.12-83.78,284.78-72.4 c33.44,4.2,63.01,13.6,89.3,24.89c77.43,33.17,127.91,79.23,169.52,127.86c20.5,23.96,39.28,49.06,58.14,76.82 c19.4,28.56,39.16,60.36,61.05,95.63c15.79,25.43,33.74,55.74,66.51,77.89c23.46,15.81,51.84,24.64,78.36,30.75 c71.72,16.41,130.89,17.96,180.34,21.88c59.03,4.69,102.08,9.95,155.56,31.84c11.45,4.69,23.49,10.02,36.04,16.68 c53.17,28.26,112.39,81.05,155.5,150.99c49.99,81.08,75.69,178.13,94.97,272.58c2.47,12.07,4.87,24.15,7.39,36.06 c6.53,30.91,13.03,62.12,31.05,87.26c23.71,33.07,64.24,50.2,106.21,48.12c13.63-0.67,27.03-3.52,39.82-8.09 c32.04-11.54,60.99-32.84,87.07-55.73c16.19-14.21,31.75-29.14,47.11-44.07c105.7-102.76,206.11-208.85,320.76-298.5 c62.63-48.82,131.75-93.27,204.73-127.8c79.67-37.82,171.99-62.23,254.8-40.73c23.42,6.1,45.65,15.86,66.15,29.66 c56.14,37.65,92.59,97.63,117.85,159.94c29.18,71.97,51.55,146.85,75.89,221.12c18.92,57.77,37.79,116.78,70.42,168.06 c32.62,51.26,82.01,94.13,135.46,104.13"/><path d="M-245.49,643.78c101.51-3.98,192.05-49.06,282.87-91.69c87.74-41.19,188.89-79.84,277.37-72.26 c32.75,2.8,62.01,10.24,88.34,19.42c77.56,26.97,130.98,65.82,176.59,108.07c22.49,20.83,43.46,42.94,64.56,67.88 c21.67,25.61,43.73,54.68,67.59,87.36c17.21,23.56,36.3,51.77,68.59,72.9c23.12,15.09,50.6,24.04,76.3,30.68 c69.48,17.84,126.96,23.29,174.3,31.97c56.67,10.39,96.59,22.33,146.35,48.97c10.62,5.69,21.82,11.93,33.46,19.39 c49.38,31.63,104.43,85.29,145.24,154.3c47.32,80,73.1,174.26,93.43,266.05c2.6,11.73,5.16,23.48,7.85,35.05 c6.99,30.05,14.13,60.3,32.32,84.39c24.49,32.42,65.41,48.17,107.26,45.4c13.57-0.9,26.9-3.89,39.61-8.55 c31.89-11.78,60.63-32.96,86.66-55.77c16.14-14.15,31.68-29,47.03-43.84c105.71-102.08,207.72-205.98,323.32-293.71 c63.19-47.81,132.45-91.28,205.38-125.37c79.47-37.27,171.81-61.78,254.03-40.2c23.31,6.14,45.4,15.96,65.75,29.93 c55.63,38.06,90.6,98.78,115.09,161.19c29.3,74.67,52.14,152.03,76.91,228.82c19.26,59.73,38.55,120.72,72.51,173.48 c33.95,52.74,85.77,96.55,141.92,105.44"/><path d="M-244.58,653.98c99.01-3.3,188.14-44.8,277.36-85.01c85.92-38.73,183.66-75.92,269.96-72.13 c32.06,1.41,61.02,6.88,87.39,13.96c77.69,20.78,134.05,52.39,183.65,88.28c24.47,17.71,47.64,36.82,70.98,58.94 c23.93,22.67,48.3,49,74.13,79.08c18.63,21.69,38.86,47.8,70.66,67.92c22.79,14.37,49.37,23.44,74.25,30.61 c67.25,19.27,123.03,28.63,168.26,42.05c54.3,16.12,91.11,34.7,137.15,66.1c9.79,6.68,20.14,13.85,30.88,22.1 c45.6,35.01,96.48,89.53,134.98,157.6c44.65,78.92,70.52,170.39,91.89,259.52c2.73,11.39,5.45,22.81,8.31,34.05 c7.44,29.18,15.24,58.47,33.59,81.52c25.28,31.75,66.59,46.23,108.32,42.68c13.51-1.1,26.78-4.25,39.4-9 c31.74-12.02,60.27-33.09,86.25-55.81c16.1-14.08,31.6-28.87,46.95-43.6c105.71-101.4,209.33-203.11,325.88-288.93 c63.75-46.8,133.16-89.29,206.03-122.95c79.27-36.73,171.63-61.32,253.26-39.68c23.19,6.17,45.16,16.07,65.35,30.19 c55.13,38.46,88.59,99.93,112.33,162.44c29.39,77.38,52.72,157.22,77.93,236.51c19.6,61.68,39.31,124.66,74.6,178.91 c35.28,54.23,89.53,98.97,148.39,106.74"/><path d="M-243.67,664.18c96.52-2.61,184.24-40.54,271.86-78.33c84.11-36.27,178.44-70.67,262.56-71.99 c31.37-0.49,60.03,3.52,86.44,8.5c77.83,14.59,137.13,38.97,190.72,68.49c26.46,14.58,51.81,30.71,77.4,50 c26.18,19.74,52.87,43.33,80.68,70.81c20.05,19.82,41.42,43.83,72.74,62.93c22.45,13.66,48.13,22.84,72.2,30.55 c65.01,20.7,119.09,33.98,162.22,52.13c51.92,21.85,85.65,47.06,127.94,83.22c8.97,7.67,18.47,15.77,28.31,24.8 c41.81,38.39,88.52,93.77,124.73,160.91c41.98,77.84,67.94,166.53,90.35,252.99c2.87,11.05,5.73,22.14,8.77,33.04 c7.9,28.32,16.36,56.62,34.86,78.64c26.1,31.07,67.77,44.2,109.38,39.96c13.45-1.32,26.65-4.62,39.19-9.46 c31.6-12.26,59.91-33.22,85.83-55.85c16.05-14.02,31.52-28.74,46.87-43.36c105.72-100.72,210.93-200.23,328.44-284.14 c64.31-45.8,133.87-87.3,206.69-120.53c79.06-36.18,171.46-60.87,252.49-39.15c23.08,6.21,44.92,16.17,64.94,30.45 c54.62,38.86,86.56,101.08,109.57,163.68c29.44,80.11,53.31,162.41,78.95,244.21c19.95,63.64,40.07,128.6,76.69,184.33 c36.61,55.71,93.29,101.39,154.85,108.05"/><path d="M-242.77,674.37c94.03-1.92,180.33-36.29,266.36-71.65c82.29-33.82,173.2-68.11,255.15-71.85 c30.68-1.4,59.03,0.16,85.49,3.03c77.96,8.39,140.25,25.43,197.78,48.7c28.47,11.4,55.99,24.61,83.82,41.06 c28.44,16.81,57.45,37.65,87.22,62.54c21.47,17.94,43.98,39.86,74.81,57.94c22.12,12.94,46.9,22.25,70.15,30.48 c62.77,22.13,115.15,39.34,156.19,62.22c49.53,27.61,80.21,59.41,118.73,100.35c8.14,8.66,16.79,17.69,25.73,27.51 c38.02,41.77,80.57,98.01,114.47,164.22c39.31,76.76,65.35,162.66,88.81,246.46c3,10.71,6.02,21.46,9.23,32.03 c8.35,27.45,17.49,54.76,36.13,75.77c26.93,30.36,68.95,42.18,110.43,37.24c13.39-1.55,26.52-4.99,38.98-9.91 c31.45-12.49,59.55-33.34,85.42-55.89c16.01-13.95,31.44-28.6,46.79-43.12c105.72-100.04,212.54-197.36,331-279.35 c64.88-44.79,134.57-85.31,207.34-118.11c78.86-35.64,171.28-60.41,251.72-38.62c22.97,6.24,44.68,16.27,64.54,30.72 c54.12,39.27,84.52,102.22,106.81,164.93c29.45,82.84,53.89,167.59,79.97,251.9c20.29,65.59,40.83,132.54,78.78,189.75 c37.94,57.19,97.05,103.81,161.31,109.35"/><path d="M-241.86,684.57c91.54-1.24,176.42-32.05,260.85-64.97c80.47-31.38,167.96-64.23,247.74-71.71 c29.99-2.81,58.04-3.19,84.54-2.43c78.09,2.2,143.31,12,204.84,28.91c30.45,8.27,60.16,18.51,90.24,32.12 c30.69,13.89,62.02,31.98,93.76,54.26C763,676.82,786.65,696.64,817,713.7c21.79,12.22,45.67,21.65,68.1,30.41 c60.53,23.56,111.18,44.71,150.15,72.3c47.12,33.36,74.78,71.76,109.53,117.48c7.33,9.64,15.09,19.62,23.15,30.21 c34.13,45.22,72.61,102.25,104.22,167.53c36.64,75.68,62.77,158.8,87.27,239.93c3.14,10.37,6.3,20.79,9.69,31.02 c8.81,26.59,18.63,52.89,37.4,72.9c27.78,29.62,70.12,40.15,111.49,34.52c13.33-1.78,26.4-5.36,38.77-10.37 c31.3-12.73,59.2-33.47,85.01-55.92c15.96-13.88,31.37-28.47,46.7-42.89c105.73-99.36,214.15-194.49,333.55-274.57 c65.44-43.78,135.28-83.32,207.99-115.68c78.66-35.09,171.11-59.96,250.94-38.1c22.85,6.27,44.44,16.37,64.14,30.98 c53.61,39.67,82.46,103.37,104.05,166.18c29.42,85.57,54.48,172.78,81,259.6c20.63,67.55,41.59,136.48,80.87,195.17 c39.27,58.68,100.81,106.24,167.77,110.66"/><path d="M-240.95,694.77c89.04-0.55,172.51-27.81,255.35-58.29c78.65-28.94,162.71-60.37,240.33-71.58 c29.3-4.23,57.04-6.55,83.59-7.9c78.22-3.99,146.37-1.43,211.91,9.12c32.43,5.14,64.34,12.42,96.66,23.18 c32.95,10.97,66.59,26.3,100.3,45.99c24.31,14.2,49.1,31.92,78.96,47.97c21.45,11.51,44.43,21.05,66.04,30.35 c58.29,24.99,107.21,50.08,144.11,82.39c44.7,39.12,69.38,84.11,100.32,134.61c6.51,10.63,13.41,21.54,20.57,32.92 c30.34,48.58,64.66,106.49,93.96,170.84c33.97,74.6,60.19,154.93,85.73,233.4c3.27,10.04,6.59,20.12,10.15,30.02 c9.26,25.72,19.78,51,38.67,70.02c28.65,28.86,71.3,38.12,112.55,31.8c13.27-2,26.27-5.73,38.56-10.83 c31.15-12.97,58.84-33.6,84.6-55.96c15.92-13.82,31.29-28.33,46.62-42.65c105.73-98.68,215.75-191.61,336.11-269.78 c66-42.78,135.99-81.33,208.64-113.26c78.45-34.55,170.93-59.51,250.17-37.57c22.74,6.31,44.2,16.47,63.74,31.24 c53.11,40.08,80.38,104.52,101.3,167.42c29.36,88.32,55.06,177.97,82.02,267.29c20.97,69.5,42.35,140.42,82.96,200.6 c40.6,60.16,104.57,108.66,174.24,111.96"/><path d="M-240.05,704.96c86.55,0.13,168.54-23.74,249.84-51.61c76.78-26.65,157.46-56.52,232.92-71.44 c28.6-5.65,56.05-9.91,82.63-13.36c78.35-10.19,149.43-14.86,218.97-10.67c34.41,2.01,68.51,6.4,103.08,14.24 c35.2,8.13,71.16,20.62,106.84,37.72c25.73,12.33,51.66,27.95,81.04,42.98c21.12,10.79,43.2,20.45,63.99,30.28 c56.05,26.42,103.22,55.45,138.07,92.47c42.26,44.88,63.99,96.48,91.11,151.74c5.7,11.62,11.74,23.45,18,35.63 c26.55,51.94,56.7,110.73,83.7,174.15c31.3,73.52,57.6,151.07,84.19,226.87c3.4,9.7,6.87,19.45,10.61,29.01 c9.72,24.86,20.94,49.09,39.94,67.15c29.54,28.07,72.47,36.1,113.6,29.08c13.21-2.23,26.14-6.1,38.35-11.28 c31-13.21,58.48-33.73,84.19-56c15.87-13.75,31.21-28.2,46.54-42.41c105.74-98,217.36-188.74,338.67-264.99 c66.56-41.77,136.69-79.34,209.29-110.84c78.25-34,170.75-59.05,249.4-37.05c22.62,6.34,43.96,16.57,63.34,31.51 c52.6,40.48,78.3,105.66,98.54,168.67c29.25,91.07,55.65,183.15,83.04,274.99c21.31,71.46,43.11,144.37,85.05,206.02 c41.93,61.64,108.33,111.08,180.7,113.26"/><path d="M-239.14,715.16c84.06,0.82,164.65-19.47,244.34-44.93c74.98-24.19,152.19-52.68,225.51-71.3 c27.9-7.08,55.05-13.27,81.68-18.82c78.48-16.38,152.49-28.28,226.04-30.46c36.39-1.11,72.71,0.29,109.5,5.3 c37.47,5.2,75.73,14.95,113.39,29.44c27.16,10.45,54.22,23.98,83.11,38c20.78,10.07,41.96,19.85,61.94,30.21 c53.81,27.85,99.22,60.81,132.04,102.55c39.8,50.63,58.62,108.85,81.9,168.87c4.9,12.62,10.06,25.37,15.42,38.33 c22.76,55.31,48.75,114.97,73.45,177.46c28.63,72.44,55.02,147.2,82.66,220.34c3.54,9.36,7.16,18.77,11.07,28 c10.17,23.99,22.1,47.17,41.21,64.28c30.44,27.24,73.65,34.07,114.66,26.36c13.15-2.45,26.01-6.46,38.14-11.74 c30.86-13.45,58.12-33.85,83.77-56.04c15.82-13.69,31.13-28.07,46.46-42.17c105.74-97.32,218.97-185.87,341.23-260.21 c67.12-40.76,137.4-77.35,209.94-108.41c78.05-33.46,170.58-58.6,248.63-36.52c22.51,6.37,43.72,16.68,62.94,31.77 c52.09,40.88,76.2,106.8,95.78,169.92c29.11,93.83,56.23,188.34,84.06,282.68c21.65,73.41,43.87,148.31,87.14,211.44 c43.26,63.13,112.09,113.5,187.16,114.57"/><path d="M-238.23,725.36c81.57,1.5,160.75-15.21,238.84-38.25c73.17-21.72,146.86-48.99,218.1-71.16 c27.18-8.57,54.06-16.63,80.73-24.29c78.61-22.57,155.55-41.71,233.1-50.25c38.36-4.24,76.9-5.82,115.92-3.64 c39.75,2.27,80.3,9.27,119.93,21.17c28.58,8.58,56.78,20.01,85.19,33.01c20.45,9.36,40.73,19.26,59.89,30.14 c51.57,29.27,95.16,66.2,126,112.64c37.29,56.4,53.32,121.22,72.7,186c4.11,13.61,8.38,27.28,12.84,41.04 c18.97,58.67,40.8,119.21,63.19,180.76c25.96,71.36,52.44,143.34,81.12,213.81c3.67,9.02,7.44,18.1,11.53,27 c10.62,23.12,23.26,45.23,42.48,61.4c31.35,26.38,74.82,32.04,115.72,23.65c13.09-2.68,25.89-6.83,37.93-12.19 c30.71-13.69,57.76-33.98,83.36-56.08c15.78-13.62,31.05-27.93,46.38-41.94c105.75-96.64,220.57-183,343.79-255.42 c67.68-39.76,138.11-75.36,210.59-105.99c77.84-32.91,170.4-58.14,247.86-36c22.4,6.41,43.48,16.78,62.54,32.03 c51.59,41.29,74.08,107.94,93.02,171.17c28.92,96.59,56.82,193.53,85.08,290.38c21.99,75.37,44.63,152.25,89.23,216.86 c44.59,64.61,115.85,115.92,193.63,115.87"/><path d="M-237.33,735.55c152.86,4.23,300.89-48.78,444.03-102.6s289.38-109.95,442.28-112.37 c152.9-2.43,316.64,60.39,391.53,193.72c34.88,62.09,47.88,133.64,63.49,203.13c33.52,149.16,81.4,295.08,142.78,435.1 c13.69,31.24,28.98,63.38,55.74,84.52c42.59,33.63,105.11,30.78,154.49,8.28c49.38-22.5,89.05-61.34,129.24-97.81 c163.87-148.69,353.36-269.06,557.6-354.2c100.15-41.75,225.16-71.78,309.22-3.17c51.08,41.69,71.96,109.07,90.26,172.41 c28.7,99.36,57.4,198.71,86.1,298.07c22.34,77.32,45.39,156.19,91.31,222.29c45.92,66.1,119.61,118.34,200.09,117.18"/></g></g></svg>